<svg width="202" height="59" viewBox="0 0 202 59" fill="none" xmlns="http://www.w3.org/2000/svg">
<g clip-path="url(#clip0_579_101)">
<path d="M59.8824 23.8063C58.1584 19.7092 55.382 16.1317 51.8298 13.4305C48.2777 10.7293 44.0738 8.99856 39.6372 8.41087C35.2007 7.82319 30.6862 8.39904 26.5439 10.081C22.4016 11.763 18.776 14.4925 16.0285 17.9973C13.281 21.5021 11.5076 25.6599 10.8848 30.0564C10.2621 34.4529 10.8119 38.9344 12.4794 43.0545C14.1469 47.1745 16.8739 50.7892 20.3885 53.5382C23.9032 56.2872 28.0829 58.0746 32.511 58.7223C31.931 56.6491 31.341 54.3578 30.8209 51.9275C32.3338 52.9009 33.9261 53.747 35.5812 54.457V54.457C35.5812 54.457 35.7012 56.5995 35.8612 58.9901C37.6495 59.0207 39.4361 58.8644 41.1914 58.5239C41.1461 58.2746 41.1461 58.0193 41.1914 57.77C41.4815 55.9151 42.2815 52.5723 42.4415 50.4198C43.5948 49.3498 44.5733 48.1082 45.3417 46.7397V46.7397L45.2816 47.1762C44.7316 51.4018 43.5816 55.9151 42.8815 57.1649C42.6549 57.5786 42.376 57.962 42.0515 58.3056C45.6715 57.4633 49.0634 55.8502 51.9923 53.5781C54.9211 51.3059 57.3166 48.4292 59.0129 45.1473C60.7091 41.8653 61.6655 38.2568 61.8156 34.5717C61.9658 30.8867 61.3061 27.2133 59.8824 23.8063V23.8063ZM58.4123 27.5657C57.9723 27.9923 57.0622 28.2799 56.9122 26.9904C56.7622 25.7009 56.7222 24.7982 56.7222 24.7982C56.7222 24.7982 54.7921 21.3959 54.0721 21.3562C53.352 21.3166 48.2418 24.7982 46.8917 26.3159C45.7217 27.5955 45.4917 27.5062 45.4917 29.7579C45.4917 31.4541 45.7117 37.862 45.5917 42.7621L37.4413 44.9146C34.8795 45.6438 32.2743 46.2136 29.6409 46.6207L28.6408 40.8378H28.5008L25.9307 27.774C25.9307 27.774 22.1205 26.3457 20.7204 25.9588C20.063 25.6735 19.3371 25.5808 18.6283 25.6915C17.9195 25.8022 17.2574 26.1118 16.7202 26.5837C16.1722 27.0596 15.734 27.6471 15.4355 28.3061C15.1369 28.9651 14.985 29.6802 14.9902 30.4026C15.2015 30.8637 15.3625 31.3459 15.4702 31.8409C15.5202 32.3171 14.2701 32.2675 13.4701 32.2675C12.67 32.2675 12.55 30.8391 13.1801 29.1627C13.6716 27.8737 14.2808 26.632 15.0002 25.4529C15.5412 24.3997 16.2391 23.4333 17.0703 22.5862C17.0703 22.5862 17.2103 22.249 18.3203 22.3482C19.4304 22.4474 25.6007 22.7747 25.6007 22.7747L25.6507 20.523C32.3574 19.6045 39.1214 19.1603 45.8917 19.1938C45.8917 19.7989 45.8917 20.404 45.8917 21.0091C48.4561 19.8483 51.2174 19.1754 54.0321 19.0252C54.1827 19.0214 54.3319 19.0548 54.4663 19.1223C54.6007 19.1898 54.7161 19.2894 54.8021 19.4121C55.1421 19.8386 57.2122 22.3879 57.4523 22.7549C58.1245 23.7078 58.7357 24.7017 59.2823 25.7307C59.095 26.3822 58.8011 26.9988 58.4123 27.5558V27.5657Z" fill="#FDC305"/>
<path d="M56.4627 21.4951C56.9328 22.0903 57.3428 22.616 57.4628 22.7747C58.135 23.7276 58.7463 24.7215 59.2929 25.7505C59.1026 26.3806 58.8123 26.9766 58.4328 27.5161C57.9928 27.9426 57.0828 28.2303 56.9328 26.9408C56.7827 25.6513 56.7227 24.7982 56.7227 24.7982C56.7227 24.7982 54.7926 21.3959 54.0726 21.3562C53.3526 21.3166 48.2423 24.7982 46.8923 26.3159C45.7222 27.5955 45.4922 27.5062 45.4922 29.7579C45.4922 31.2458 45.6622 36.3542 45.6222 40.8973C47.4323 41.0956 50.0924 41.5916 50.8925 42.7621C50.8925 42.7621 50.6024 35.64 58.7028 39.3697C58.7028 39.3697 58.9829 29.6587 70.1634 32.1484C66.3627 27.7223 61.7034 24.0994 56.4627 21.4951V21.4951Z" fill="#F06351"/>
<path d="M45.9324 19.1938C45.9731 13.6973 45.5044 8.20868 44.5323 2.79723C44.5323 2.79723 44.3823 1.50772 43.6623 2.55916C43.0681 3.81616 42.6638 5.15306 42.4622 6.52688C38.1872 6.25481 33.8961 6.36769 29.6416 6.86414C28.8215 4.13633 27.4215 2.89642 26.7514 3.22376C26.0814 3.55109 26.0014 6.47729 26.0014 6.47729L25.6714 20.523C32.3847 19.6036 39.1555 19.1594 45.9324 19.1938V19.1938Z" fill="#F06351"/>
<path d="M45.3516 46.7398C45.4816 45.6784 45.5516 44.2699 45.5916 42.7125L37.4416 44.865C34.881 45.611 32.276 46.1974 29.6416 46.6207L30.7516 51.5804C30.7516 51.6895 30.7516 51.7986 30.8216 51.9077C32.3344 52.8811 33.9266 53.7272 35.5816 54.4371C38.0003 53.2903 40.3039 51.9186 42.4616 50.3405V50.4C43.6097 49.3352 44.5846 48.1005 45.3516 46.7398V46.7398Z" fill="#E55645"/>
<path d="M32.0017 16.0891C31.9517 15.9899 33.0017 16.7636 33.4117 17.0017C33.8217 17.2398 34.0217 17.4183 34.0217 17.5869C34.0217 17.7556 33.7617 17.9242 33.4017 17.9242C33.0417 17.9242 32.4817 17.8052 32.4017 17.6663C32.3217 17.5274 33.0017 17.6663 33.3417 17.6663H33.6317C33.0161 17.2195 32.4673 16.6885 32.0017 16.0891Z" fill="black"/>
<path d="M39.5018 16.1982C39.5018 16.1982 38.5018 17.4679 38.4118 17.5274C38.3218 17.5869 38.2418 17.8647 38.6018 17.8151C39.0151 17.7539 39.423 17.661 39.8218 17.5373C39.9318 17.4778 39.8918 17.3389 39.7018 17.3588C39.5118 17.3786 39.0218 17.4084 38.7018 17.4679L39.5518 16.2081C39.5518 16.2081 39.5818 16.0891 39.5018 16.1982Z" fill="black"/>
<path d="M36.3619 22.2589C36.8254 22.0564 37.2086 21.7077 37.4519 21.267C37.7319 20.6123 37.4519 20.3643 37.0119 20.2751C36.4065 20.1655 35.7818 20.2859 35.2619 20.6123C34.8719 20.9793 34.9219 21.3364 35.2619 21.6043C35.5996 21.867 35.9692 22.0869 36.3619 22.2589V22.2589Z" fill="black"/>
<path d="M36.0018 23.5087C35.887 23.7337 35.731 23.9355 35.5418 24.1039C35.257 24.3312 34.9069 24.4631 34.5418 24.4808C33.9912 24.5344 33.4407 24.3784 33.0018 24.0444C32.8002 23.9274 32.6209 23.7764 32.4718 23.598C32.3718 23.49 32.2488 23.4053 32.1118 23.35C32.1118 23.35 32.8618 27.4269 34.6818 28.0815C36.5018 28.7362 36.8418 27.3277 36.8918 26.9507C36.9527 25.8218 36.6668 24.7011 36.0718 23.7369C36.0718 23.4393 36.0518 23.6377 36.0018 23.5087Z" fill="#F06351"/>
<path d="M34.3018 24.6395C33.8338 24.5728 33.3843 24.4127 32.9804 24.1689C32.5765 23.9251 32.2266 23.6027 31.9518 23.2211C31.9272 23.1938 31.9136 23.1585 31.9136 23.1219C31.9136 23.0853 31.9272 23.05 31.9518 23.0227C31.9648 23.0095 31.9804 22.999 31.9975 22.9918C32.0147 22.9847 32.0331 22.981 32.0518 22.981C32.0704 22.981 32.0888 22.9847 32.106 22.9918C32.1232 22.999 32.1387 23.0095 32.1518 23.0227C32.3992 23.367 32.7132 23.6592 33.0754 23.8823C33.4376 24.1054 33.8409 24.2549 34.2618 24.3221C34.5948 24.2973 34.9171 24.1944 35.2022 24.022C35.4873 23.8495 35.727 23.6124 35.9018 23.3302L36.0418 23.1417L36.1418 23.3599C36.1418 23.3599 36.5218 24.1138 37.1418 24.1535C37.7618 24.1932 38.2018 23.7369 38.7718 22.8739C38.793 22.8423 38.826 22.8204 38.8635 22.813C38.901 22.8055 38.9399 22.8132 38.9718 22.8342C39.0036 22.8553 39.0257 22.888 39.0332 22.9252C39.0407 22.9624 39.033 23.001 39.0118 23.0326C38.3451 24.0047 37.7151 24.4709 37.1218 24.4312C36.8924 24.4011 36.6728 24.3204 36.479 24.1951C36.2852 24.0698 36.1221 23.9031 36.0018 23.7071C35.8061 23.9781 35.552 24.2024 35.2579 24.3637C34.9638 24.525 34.6372 24.6192 34.3018 24.6395Z" fill="black"/>
<path d="M36.2617 37.9909C38.3328 37.9909 40.0117 36.3255 40.0117 34.2712C40.0117 32.2168 38.3328 30.5515 36.2617 30.5515C34.1907 30.5515 32.5117 32.2168 32.5117 34.2712C32.5117 36.3255 34.1907 37.9909 36.2617 37.9909Z" fill="#FDC305"/>
<path d="M41.2315 31.2458L38.1015 32.5452L39.2515 26.9606L31.7515 36.6419L34.8815 35.3424L33.7315 40.9369L41.2315 31.2458ZM33.8415 35.0449L38.0015 29.6785L37.1915 33.6462L39.1915 32.8329L35.0015 38.2091L35.8115 34.2414L33.8415 35.0449Z" fill="#111111"/>
<path d="M32.4418 33.5867C33.0603 33.5867 33.5618 33.0893 33.5618 32.4758C33.5618 31.8622 33.0603 31.3648 32.4418 31.3648C31.8232 31.3648 31.3218 31.8622 31.3218 32.4758C31.3218 33.0893 31.8232 33.5867 32.4418 33.5867Z" fill="#111111"/>
<path d="M38.9619 37.614C39.3982 37.614 39.7519 37.2632 39.7519 36.8304C39.7519 36.3976 39.3982 36.0468 38.9619 36.0468C38.5256 36.0468 38.1719 36.3976 38.1719 36.8304C38.1719 37.2632 38.5256 37.614 38.9619 37.614Z" fill="#111111"/>
<path d="M39.9218 35.4615C40.1151 35.4615 40.2718 35.3061 40.2718 35.1143C40.2718 34.9226 40.1151 34.7672 39.9218 34.7672C39.7285 34.7672 39.5718 34.9226 39.5718 35.1143C39.5718 35.3061 39.7285 35.4615 39.9218 35.4615Z" fill="#111111"/>
<path d="M45.8823 20.9892C44.0771 22.6034 42.3769 24.3295 40.7921 26.1572C39.2134 27.9717 37.4319 29.6023 35.4818 31.0177C35.2618 30.4919 33.8517 29.5099 33.8517 29.5099C33.8517 29.5099 30.7116 27.3773 28.6515 25.7009C27.5378 24.7809 26.4887 23.7867 25.5113 22.7251L23.5112 22.616C26.3984 26.7991 30.6281 29.8897 35.5118 31.3847C36.3719 31.2458 38.792 29.5298 40.6021 28.1311C42.7436 26.3247 44.749 24.3654 46.6024 22.2688C47.1005 21.6816 47.4868 21.0094 47.7424 20.285C46.6024 20.6619 45.8823 20.9892 45.8823 20.9892Z" fill="#F06351"/>
<path d="M65.223 3.47176L56.763 12.8356L55.543 10.8616L63.693 0L65.223 3.47176Z" fill="#FDC305"/>
<path d="M62.6532 17.1207L68.1932 13.0439L67.4132 9.33405L62.0132 14.1052L62.6532 17.1207Z" fill="#FDC305"/>
<path d="M59.9229 48.9716L66.0529 52.1259L69.0628 49.8048L62.3729 47.077L59.9229 48.9716Z" fill="#FDC305"/>
<path d="M1.9502 5.92181L5.0202 2.58893L14.3102 11.5163L13.0902 13.7779L1.9502 5.92181Z" fill="#FDC305"/>
<path d="M7.37979 16.1486L2.67979 13.0439L0.279785 16.8827L5.42978 19.2633L7.37979 16.1486Z" fill="#FDC305"/>
<path d="M13.9099 52.1259L9.35986 55.4489L12.1599 59L16.1799 55.0124L13.9099 52.1259Z" fill="#FDC305"/>
<path d="M25.9313 27.7741C25.9313 27.7741 22.1211 26.3457 20.721 25.9588C20.0636 25.6736 19.3377 25.5808 18.6289 25.6915C17.9201 25.8023 17.258 26.1119 16.7208 26.5837C16.1728 27.0597 15.7346 27.6471 15.4361 28.3061C15.1375 28.9651 14.9856 29.6802 14.9907 30.4027C15.2021 30.8637 15.3631 31.3459 15.4708 31.841C15.5208 32.3171 14.2707 32.2675 13.4707 32.2675C12.6706 32.2675 12.5506 30.8391 13.1807 29.1628C13.6722 27.8738 14.2814 26.632 15.0007 25.4529C9.55047 28.27 0 34.7771 0 34.7771C2.73182 34.6137 5.47292 34.6933 8.1904 35.0151C13.4407 35.5409 13.1907 39.6475 13.1907 39.6475C15.0373 39.1425 16.9192 38.7745 18.8209 38.5464C20.941 38.4076 21.091 40.6493 21.091 40.6493L21.6211 44.4782C22.4259 43.6145 23.3134 42.8305 24.2712 42.1372C25.5057 41.157 27.0776 40.6942 28.6514 40.8477V40.8477L25.9313 27.7741Z" fill="#F06351"/>
<path d="M85.6643 41.661C84.6342 40.1469 84.1416 38.3356 84.2643 36.5129V29.0734C84.1344 27.2374 84.6195 25.4101 85.6443 23.8757C86.571 22.692 88.1543 22.1035 90.3943 22.1101C92.6343 22.1167 94.151 22.6358 94.9443 23.6674C95.9117 24.9458 96.3837 26.5264 96.2743 28.1212V29.867H92.1343V27.9724C92.1287 27.4739 92.0853 26.9765 92.0043 26.4845C91.9543 26.1283 91.7894 25.7978 91.5343 25.5422C91.3769 25.4082 91.1941 25.3068 90.9966 25.2438C90.7991 25.1808 90.591 25.1574 90.3843 25.1752C90.0875 25.1312 89.7843 25.1791 89.5159 25.3122C89.2475 25.4453 89.027 25.6572 88.8843 25.9191C88.6214 26.6157 88.5057 27.3585 88.5443 28.1014V37.5445C88.4987 38.2923 88.6324 39.0401 88.9343 39.7268C89.0786 39.9745 89.2927 40.175 89.5503 40.3036C89.8079 40.4323 90.0978 40.4835 90.3843 40.4509C90.6659 40.4904 90.9528 40.4407 91.2042 40.3089C91.4556 40.1771 91.6586 39.9699 91.7843 39.7169C92.0262 39.0189 92.1314 38.2816 92.0943 37.5445V35.5607H96.2343V37.2767C96.3562 38.895 95.9227 40.5066 95.0043 41.8495C94.1243 42.9406 92.6043 43.4763 90.4443 43.4763C88.2843 43.4763 86.5943 42.8811 85.6643 41.661Z" fill="#111111"/>
<path d="M101.915 22.3978H106.655L110.655 43.2283H106.715L106.005 38.6257H102.685L101.885 43.1985H97.8848L101.915 22.3978ZM105.565 36.007L104.305 27.6352L103.055 36.007H105.565Z" fill="#111111"/>
<path d="M113.725 25.5323H110.485V22.3978H121.205V25.5323H118.005V43.1985H113.715L113.725 25.5323Z" fill="#111111"/>
<path d="M129.616 22.3978H137.746V24.5602H132.546V31.4342H136.766V33.4875H132.546V41.1155H137.796V43.1985H129.616V22.3978Z" fill="#444444"/>
<path d="M140.157 22.3978H142.157L148.157 36.2153V22.3978H150.597V43.2283H148.727L142.727 29.0239V43.1985H140.247L140.157 22.3978Z" fill="#444444"/>
<path d="M153.828 22.3978H161.948V24.5602H156.748V31.4342H161.008V33.4875H156.788V41.1155H162.008V43.1985H153.828V22.3978Z" fill="#444444"/>
<path d="M164.358 22.3978H168.578C170.241 22.2651 171.897 22.7259 173.248 23.6972C174.248 24.5602 174.738 25.9688 174.738 27.9229C174.738 30.568 173.875 32.1849 172.148 32.7734L175.148 43.1986H172.308L169.558 33.438H167.288V43.1986H164.358V22.3978ZM168.358 31.3252C169.321 31.4176 170.285 31.1487 171.058 30.5713C171.372 30.2024 171.607 29.7736 171.748 29.3113C171.889 28.849 171.933 28.363 171.878 27.8832C171.898 27.2102 171.8 26.5389 171.588 25.8993C171.502 25.6635 171.369 25.4472 171.197 25.2632C171.026 25.0791 170.818 24.9312 170.588 24.828C169.939 24.5638 169.239 24.4453 168.538 24.4809H167.248V31.3649L168.358 31.3252Z" fill="#444444"/>
<path d="M178.679 41.6611C177.723 40.0607 177.28 38.21 177.409 36.3542V29.4107C177.374 28.0708 177.543 26.7333 177.909 25.443C178.197 24.473 178.811 23.6297 179.649 23.0525C180.66 22.4481 181.83 22.1579 183.009 22.2192C183.771 22.1473 184.54 22.2414 185.262 22.495C185.984 22.7486 186.642 23.1555 187.189 23.6873C188.148 25.0205 188.601 26.6472 188.469 28.2799V29.0536H185.719V28.4089C185.737 27.6377 185.677 26.8667 185.539 26.1076C185.447 25.6211 185.176 25.186 184.779 24.8875C184.259 24.5836 183.66 24.4419 183.059 24.4808C182.405 24.4254 181.756 24.6247 181.249 25.0363C180.834 25.4267 180.563 25.9435 180.479 26.5044C180.352 27.3215 180.295 28.1477 180.309 28.9743V36.7014C180.229 37.8756 180.431 39.0518 180.899 40.1335C181.17 40.4662 181.514 40.7329 181.906 40.9133C182.297 41.0937 182.724 41.183 183.156 41.1744C183.587 41.1658 184.011 41.0595 184.394 40.8636C184.778 40.6677 185.111 40.3874 185.369 40.0442C185.85 38.9001 186.059 37.661 185.979 36.4237V34.9556H183.319V32.9023H188.619V43.1986H186.809L186.519 40.808C186.289 41.6022 185.796 42.2962 185.119 42.777C184.442 43.2578 183.62 43.4973 182.789 43.4565C182.006 43.5249 181.22 43.3961 180.501 43.0823C179.783 42.7684 179.156 42.2795 178.679 41.6611V41.6611Z" fill="#444444"/>
<path d="M194.699 35.8583L190.169 22.3978H192.889L196.099 32.4361L199.259 22.3978H202.009L197.509 35.8583V43.1985H194.709L194.699 35.8583Z" fill="#444444"/>
</g>
<defs>
<clipPath id="clip0_579_101">
<rect width="202" height="59" fill="white"/>
</clipPath>
</defs>
</svg>
