<svg width="32" height="33" viewBox="0 0 32 33" fill="none" xmlns="http://www.w3.org/2000/svg">
<ellipse cx="21.2042" cy="11.3297" rx="1.0873" ry="1.08512" fill="white"/>
<ellipse cx="10.3312" cy="11.3297" rx="1.08731" ry="1.08512" fill="white"/>
<ellipse cx="10.3312" cy="24.3512" rx="1.08731" ry="1.08512" fill="white"/>
<ellipse cx="15.7677" cy="26.5214" rx="1.0873" ry="1.08512" fill="white"/>
<ellipse cx="7.06924" cy="17.7748" rx="1.08731" ry="1.08512" fill="white"/>
<ellipse cx="24.466" cy="17.7748" rx="1.0873" ry="1.08512" fill="white"/>
<ellipse cx="21.2042" cy="24.3512" rx="1.0873" ry="1.08512" fill="white"/>
<mask id="path-8-inside-1_579_227" fill="white">
<path d="M15.7681 5C22.5235 5.00014 28.0004 10.6477 28.0005 17.6143C28.0005 21.4686 26.3239 24.9195 23.6821 27.2334C23.2229 27.6356 23.1585 28.3478 23.5845 28.7852L24.9409 30.1777C25.1986 30.4424 25.1986 30.8643 24.9409 31.1289C24.6733 31.4037 24.2319 31.4037 23.9644 31.1289L22.1382 29.2539C21.8222 28.9298 21.3295 28.8618 20.9214 29.0576C19.3552 29.809 17.6092 30.2285 15.7681 30.2285C13.886 30.2285 12.103 29.7909 10.5103 29.0078C10.1004 28.8063 9.6023 28.872 9.28369 29.1992L7.40381 31.1289C7.13623 31.4036 6.69479 31.4037 6.42725 31.1289C6.1698 30.8642 6.16962 30.4423 6.42725 30.1777L7.86182 28.7051C8.28467 28.2706 8.22432 27.5648 7.77197 27.1611C5.1776 24.848 3.53564 21.4286 3.53564 17.6143C3.53577 10.6476 9.0125 5 15.7681 5ZM15.7681 6.40137C9.76313 6.40137 4.89515 11.4217 4.89502 17.6143C4.89502 23.807 9.76305 28.8271 15.7681 28.8271C21.773 28.827 26.6411 23.8069 26.6411 17.6143C26.641 11.4217 21.7729 6.4015 15.7681 6.40137ZM15.7896 9.15918C16.2209 9.15918 16.5705 9.50916 16.5708 9.94043V18.123C16.5705 18.5663 16.2113 18.9256 15.7681 18.9258C15.3486 18.9258 15.0083 18.5854 15.0083 18.166V9.94043C15.0086 9.50916 15.3582 9.15918 15.7896 9.15918Z"/>
</mask>
<path d="M15.7681 5C22.5235 5.00014 28.0004 10.6477 28.0005 17.6143C28.0005 21.4686 26.3239 24.9195 23.6821 27.2334C23.2229 27.6356 23.1585 28.3478 23.5845 28.7852L24.9409 30.1777C25.1986 30.4424 25.1986 30.8643 24.9409 31.1289C24.6733 31.4037 24.2319 31.4037 23.9644 31.1289L22.1382 29.2539C21.8222 28.9298 21.3295 28.8618 20.9214 29.0576C19.3552 29.809 17.6092 30.2285 15.7681 30.2285C13.886 30.2285 12.103 29.7909 10.5103 29.0078C10.1004 28.8063 9.6023 28.872 9.28369 29.1992L7.40381 31.1289C7.13623 31.4036 6.69479 31.4037 6.42725 31.1289C6.1698 30.8642 6.16962 30.4423 6.42725 30.1777L7.86182 28.7051C8.28467 28.2706 8.22432 27.5648 7.77197 27.1611C5.1776 24.848 3.53564 21.4286 3.53564 17.6143C3.53577 10.6476 9.0125 5 15.7681 5ZM15.7681 6.40137C9.76313 6.40137 4.89515 11.4217 4.89502 17.6143C4.89502 23.807 9.76305 28.8271 15.7681 28.8271C21.773 28.827 26.6411 23.8069 26.6411 17.6143C26.641 11.4217 21.7729 6.4015 15.7681 6.40137ZM15.7896 9.15918C16.2209 9.15918 16.5705 9.50916 16.5708 9.94043V18.123C16.5705 18.5663 16.2113 18.9256 15.7681 18.9258C15.3486 18.9258 15.0083 18.5854 15.0083 18.166V9.94043C15.0086 9.50916 15.3582 9.15918 15.7896 9.15918Z" fill="white"/>
<path d="M15.7681 5L15.7681 1H15.7681V5ZM28.0005 17.6143L32.0005 17.6143L32.0005 17.6142L28.0005 17.6143ZM23.6821 27.2334L26.3177 30.2424L26.3177 30.2424L23.6821 27.2334ZM23.5845 28.7852L20.7188 31.5758L20.7191 31.5762L23.5845 28.7852ZM24.9409 30.1777L27.8066 27.3871L27.8063 27.3867L24.9409 30.1777ZM24.9409 31.1289L27.8066 33.9196L27.8071 33.9191L24.9409 31.1289ZM23.9644 31.1289L26.8301 28.3382L26.8298 28.338L23.9644 31.1289ZM22.1382 29.2539L25.0037 26.463L25.0026 26.462L22.1382 29.2539ZM20.9214 29.0576L19.1915 25.451L19.1912 25.4512L20.9214 29.0576ZM15.7681 30.2285L15.7681 34.2285L15.7681 34.2285L15.7681 30.2285ZM10.5103 29.0078L8.74542 32.5974L8.74546 32.5975L10.5103 29.0078ZM9.28369 29.1992L12.1489 31.9904L12.1494 31.9899L9.28369 29.1992ZM7.40381 31.1289L4.53865 28.3377L4.53853 28.3378L7.40381 31.1289ZM6.42725 31.1289L3.55996 33.9179L3.56154 33.9196L6.42725 31.1289ZM6.42725 30.1777L3.56201 27.3866L3.56156 27.3871L6.42725 30.1777ZM7.86182 28.7051L10.7271 31.4962L10.7282 31.495L7.86182 28.7051ZM7.77197 27.1611L10.4351 24.1765L10.4339 24.1755L7.77197 27.1611ZM3.53564 17.6143L-0.464355 17.6142V17.6143H3.53564ZM15.7681 6.40137L15.7682 2.40137H15.7681V6.40137ZM4.89502 17.6143L0.89502 17.6142V17.6143H4.89502ZM15.7681 28.8271L15.7681 32.8271L15.7682 32.8271L15.7681 28.8271ZM26.6411 17.6143L30.6411 17.6143L30.6411 17.6142L26.6411 17.6143ZM15.7896 9.15918L15.7896 5.15918H15.7896V9.15918ZM16.5708 9.94043L20.5708 9.94043L20.5708 9.93799L16.5708 9.94043ZM16.5708 18.123L20.5708 18.1254V18.123H16.5708ZM15.7681 18.9258L15.7681 22.9258L15.7699 22.9258L15.7681 18.9258ZM15.0083 9.94043L11.0083 9.93799V9.94043H15.0083ZM15.7681 5L15.768 9C20.1994 9.00009 24.0004 12.7401 24.0005 17.6143L28.0005 17.6143L32.0005 17.6142C32.0003 8.55522 24.8476 1.00018 15.7681 1L15.7681 5ZM28.0005 17.6143H24.0005C24.0005 20.2907 22.8403 22.6534 21.0466 24.2244L23.6821 27.2334L26.3177 30.2424C29.8074 27.1857 32.0005 22.6465 32.0005 17.6143H28.0005ZM23.6821 27.2334L21.0466 24.2244C19.0511 25.9722 18.5246 29.3227 20.7188 31.5758L23.5845 28.7852L26.4502 25.9945C27.7925 27.3729 27.3947 29.2991 26.3177 30.2424L23.6821 27.2334ZM23.5845 28.7852L20.7191 31.5762L22.0756 32.9687L24.9409 30.1777L27.8063 27.3867L26.4498 25.9941L23.5845 28.7852ZM24.9409 30.1777L22.0752 32.9684C20.8201 31.6795 20.8211 29.6265 22.0748 28.3387L24.9409 31.1289L27.8071 33.9191C29.5761 32.102 29.5772 29.2052 27.8066 27.3871L24.9409 30.1777ZM24.9409 31.1289L22.0752 28.3383C23.3779 27.0005 25.5274 27.0006 26.8301 28.3382L23.9644 31.1289L21.0987 33.9196C22.9365 35.8068 25.9688 35.8068 27.8066 33.9196L24.9409 31.1289ZM23.9644 31.1289L26.8298 28.338L25.0037 26.463L22.1382 29.2539L19.2727 32.0448L21.0989 33.9198L23.9644 31.1289ZM22.1382 29.2539L25.0026 26.462C23.3887 24.8061 21.0141 24.5768 19.1915 25.451L20.9214 29.0576L22.6512 32.6642C21.645 33.1469 20.2558 33.0534 19.2737 32.0459L22.1382 29.2539ZM20.9214 29.0576L19.1912 25.4512C18.1507 25.9504 16.9945 26.2285 15.768 26.2285L15.7681 30.2285L15.7681 34.2285C18.2239 34.2285 20.5598 33.6676 22.6516 32.6641L20.9214 29.0576ZM15.7681 30.2285V26.2285C14.5135 26.2285 13.3327 25.9382 12.275 25.4182L10.5103 29.0078L8.74546 32.5975C10.8732 33.6435 13.2586 34.2285 15.7681 34.2285V30.2285ZM10.5103 29.0078L12.2751 25.4182C10.4488 24.5203 8.04798 24.7347 6.41799 26.4086L9.28369 29.1992L12.1494 31.9899C11.1566 33.0093 9.75202 33.0923 8.74542 32.5974L10.5103 29.0078ZM9.28369 29.1992L6.41853 26.408L4.53865 28.3377L7.40381 31.1289L10.269 33.9201L12.1489 31.9904L9.28369 29.1992ZM7.40381 31.1289L4.53853 28.3378C5.84066 27.0011 7.98983 27.0001 9.29295 28.3383L6.42725 31.1289L3.56154 33.9196C5.39976 35.8072 8.43179 35.8061 10.2691 33.92L7.40381 31.1289ZM6.42725 31.1289L9.29453 28.3399C10.5458 29.6263 10.5493 31.6783 9.29293 32.9684L6.42725 30.1777L3.56156 27.3871C1.78994 29.2063 1.7938 32.1022 3.55996 33.9179L6.42725 31.1289ZM6.42725 30.1777L9.29248 32.9689L10.7271 31.4962L7.86182 28.7051L4.99658 25.9139L3.56201 27.3866L6.42725 30.1777ZM7.86182 28.7051L10.7282 31.495C12.9061 29.2575 12.4027 25.9323 10.4351 24.1765L7.77197 27.1611L5.10884 30.1457C4.04591 29.1973 3.66328 27.2838 4.99544 25.9151L7.86182 28.7051ZM7.77197 27.1611L10.4339 24.1755C8.67189 22.6045 7.53564 20.263 7.53564 17.6143H3.53564H-0.464355C-0.464355 22.5941 1.6833 27.0916 5.11002 30.1468L7.77197 27.1611ZM3.53564 17.6143L7.53564 17.6143C7.53573 12.7399 11.3367 9 15.7681 9V5V1C6.68834 1 -0.464192 8.55522 -0.464355 17.6142L3.53564 17.6143ZM15.7681 6.40137V2.40137C7.43876 2.40137 0.895187 9.32953 0.89502 17.6142L4.89502 17.6143L8.89502 17.6143C8.8951 13.5138 12.0875 10.4014 15.7681 10.4014V6.40137ZM4.89502 17.6143H0.89502C0.89502 25.8992 7.43876 32.8271 15.7681 32.8271V28.8271V24.8271C12.0873 24.8271 8.89502 21.7148 8.89502 17.6143H4.89502ZM15.7681 28.8271L15.7682 32.8271C24.0972 32.827 30.6411 25.8992 30.6411 17.6143H26.6411H22.6411C22.6411 21.7146 19.4487 24.8271 15.768 24.8271L15.7681 28.8271ZM26.6411 17.6143L30.6411 17.6142C30.6409 9.32952 24.0972 2.40156 15.7682 2.40137L15.7681 6.40137L15.768 10.4014C19.4486 10.4015 22.641 13.514 22.6411 17.6143L26.6411 17.6143ZM15.7896 9.15918L15.7895 13.1592C14.0093 13.1592 12.5719 11.7164 12.5708 9.94287L16.5708 9.94043L20.5708 9.93799C20.5692 7.30189 18.4324 5.1592 15.7896 5.15918L15.7896 9.15918ZM16.5708 9.94043H12.5708V18.123H16.5708H20.5708V9.94043H16.5708ZM16.5708 18.123L12.5708 18.1207C12.5719 16.3572 14.0012 14.9266 15.7663 14.9258L15.7681 18.9258L15.7699 22.9258C18.4214 22.9246 20.5692 20.7753 20.5708 18.1254L16.5708 18.123ZM15.7681 18.9258V14.9258C17.5578 14.9258 19.0083 16.3763 19.0083 18.166H15.0083H11.0083C11.0083 20.7946 13.1395 22.9258 15.7681 22.9258V18.9258ZM15.0083 18.166H19.0083V9.94043H15.0083H11.0083V18.166H15.0083ZM15.0083 9.94043L19.0083 9.94287C19.0072 11.7164 17.5698 13.1592 15.7896 13.1592V9.15918V5.15918C13.1467 5.15918 11.0099 7.30192 11.0083 9.93799L15.0083 9.94043Z" fill="white" mask="url(#path-8-inside-1_579_227)"/>
<rect x="15" y="6" width="4" height="1.5" transform="rotate(-90 15 6)" fill="white"/>
<rect x="8" y="2" width="15.5" height="1.5" rx="0.75" fill="white"/>
</svg>
