<svg width="134" height="56" viewBox="0 0 134 56" fill="none" xmlns="http://www.w3.org/2000/svg">
<g clip-path="url(#clip0_579_171)">
<path d="M123.1 5.79995C124.254 3.96303 125.789 2.39455 127.6 1.19995C128.6 0.499945 129.2 0.499945 129.8 1.79994C130.6 3.69994 131.3 5.69995 130.7 7.79995C130.591 8.15612 130.57 8.53354 130.64 8.89948C130.71 9.26543 130.867 9.60884 131.1 9.89994C131.7 10.6999 132.2 11.4999 132.7 12.1999C133.38 13.0637 133.822 14.0913 133.98 15.1795C134.138 16.2677 134.007 17.3783 133.6 18.3999C133.233 19.3918 133.163 20.4692 133.4 21.4999C133.6 22.49 133.6 23.5099 133.4 24.4999C133.319 25.2414 133.019 25.9418 132.538 26.5118C132.057 27.0819 131.417 27.4955 130.7 27.6999C129.421 27.9433 128.279 28.6568 127.5 29.6999C127.405 29.8536 127.273 29.9803 127.115 30.0678C126.958 30.1554 126.78 30.2009 126.6 30.1999C125.4 30.3999 122.4 27.6999 122.4 26.4999V25.8999C122.5 22.2999 122.3 21.9999 119 20.4999C118.309 20.2564 117.69 19.8438 117.2 19.2999C116.6 18.4999 115.8 18.5999 114.9 18.8999C114 19.1999 113.5 19.7999 113.6 20.7999C113.901 23.2208 114.002 25.6625 113.9 28.0999C113.907 28.3781 113.975 28.6514 114.1 28.8999C117.2 33.3999 118.4 38.6999 119.9 43.7999C121.1 47.6999 123.3 49.7999 127.3 50.0999C127.94 50.151 128.575 50.2513 129.2 50.3999C130.022 50.532 130.785 50.9075 131.391 51.478C131.997 52.0484 132.418 52.7876 132.6 53.5999C133.3 55.6999 132.9 56.1999 130.8 56.1999H124.3C123.458 56.2425 122.633 55.9555 122 55.3999C120.988 54.5458 119.838 53.8696 118.6 53.3999C117.231 52.8946 116.046 51.9886 115.2 50.7999C114.029 49.1634 112.688 47.6551 111.2 46.2999C108.4 43.3999 105.4 40.5999 102.8 37.5999C100.821 35.5558 99.6789 32.8442 99.5999 29.9999C99.5999 29.0999 99.3999 28.6999 98.3999 29.0999C98.1005 29.2899 97.7545 29.3937 97.3999 29.3999C94.5999 29.3999 93.1999 31.0999 92.1999 33.5999C91.2999 35.6999 90.0999 37.6999 88.9999 39.7999C88.3762 41.1145 88.0355 42.5454 87.9999 43.9999C87.9999 46.3999 88.5999 47.1999 90.7999 47.9999C92.1999 48.4999 93.4999 48.9999 94.1999 50.3999C94.9999 51.9999 94.7999 52.3999 93.0999 52.4999H86.2999C85.9079 52.5388 85.5136 52.4535 85.1727 52.2561C84.8317 52.0587 84.5614 51.7592 84.3999 51.3999L82.5999 48.3999C82.0693 47.6172 81.7296 46.7209 81.6081 45.7831C81.4865 44.8454 81.5865 43.8921 81.8999 42.9999C82.3327 41.2635 82.3669 39.4515 81.9999 37.6999C81.7478 36.4801 81.7696 35.2194 82.0635 34.009C82.3575 32.7985 82.9164 31.6683 83.6999 30.6999C84.2999 29.9999 84.2999 29.6999 83.2999 29.4999C79.2108 28.6313 75.2466 27.2539 71.4999 25.3999C71.4734 25.3999 71.448 25.3894 71.4292 25.3707C71.4105 25.3519 71.3999 25.3265 71.3999 25.2999C68.1999 24.0999 67.5999 24.2999 66.6999 27.5999C65.8999 30.3999 65.0999 33.1999 64.4999 36.0999C63.7999 39.2999 64.5999 42.2999 65.5999 45.2999C65.9999 46.4999 67.1999 46.3999 68.0999 46.6999C70.0999 47.2999 71.7999 48.0999 72.5999 50.1999C73.2999 51.7999 73.1999 51.9999 71.4999 51.9999C69.7999 51.9999 68.0999 51.8999 66.2999 51.9999C64.781 52.0275 63.2985 51.5333 62.0999 50.5999C57.2999 47.3999 55.8999 42.4999 55.4999 37.1999C55.2999 33.8999 53.4999 31.2999 51.3999 28.7999C50.9999 28.2999 50.5999 28.0999 49.9999 28.4999C47.8534 29.6835 45.6124 30.6869 43.2999 31.4999C38.4742 33.2039 34.2395 36.2584 31.0999 40.2999C29.9276 41.7749 29.1683 43.535 28.8999 45.3999C28.5999 47.1999 29.0999 47.9999 30.8999 48.4999C32.6999 48.9999 33.5999 49.9999 33.7999 51.8999C33.8999 52.6999 33.5999 53.0999 32.7999 53.0999H24.6999C24.4348 53.0812 24.1782 52.9986 23.9518 52.8593C23.7255 52.72 23.5362 52.5281 23.3999 52.2999C22.1438 50.7447 21.4716 48.7989 21.4999 46.7999C21.4474 43.3449 21.749 39.8935 22.3999 36.4999C22.5334 35.4836 22.9128 34.5152 23.5053 33.6788C24.0978 32.8423 24.8855 32.1631 25.7999 31.6999C31.6999 28.8999 34.7999 23.5999 37.5999 18.0999C38.1999 16.9999 37.6999 16.7999 36.6999 16.8999C33.9013 17.2885 31.2496 18.3905 28.9999 20.0999C26.0541 22.2488 23.2791 24.6226 20.6999 27.1999C17.9496 29.9936 14.3026 31.7286 10.3999 32.0999C3.09992 32.4999 -0.300081 28.3999 -8.06041e-05 21.7999C0.0669819 19.5495 0.915567 17.3927 2.39992 15.6999C2.91594 15.0309 3.61965 14.5309 4.42119 14.2637C5.22272 13.9966 6.0857 13.9744 6.89992 14.1999C8.39992 14.5999 8.79992 15.3999 8.19992 16.8999C7.89992 17.4999 7.49992 17.9999 7.19992 18.5999C6.76852 19.2129 6.43144 19.8871 6.19992 20.5999C5.09992 23.5999 6.59992 25.6999 9.69992 25.9999C12.9999 26.2999 15.6999 24.8999 18.1999 22.8999C21.2118 20.4882 23.9006 17.6986 26.1999 14.5999C27.9192 12.3374 30.084 10.4512 32.5607 9.05807C35.0375 7.66491 37.7735 6.79428 40.5999 6.49995C42.8999 6.19995 44.8999 5.19995 47.0999 4.59995C51.2144 3.34555 55.4989 2.7383 59.7999 2.79995C61.792 2.88291 63.7765 2.50654 65.5999 1.69995C70.4999 -0.300055 75.5999 -0.300055 80.6999 0.699945C84.6999 1.49995 88.6999 2.49995 92.5999 3.49995C94.9209 3.93242 97.3074 3.86423 99.5999 3.29995C103.989 2.18748 108.478 1.51747 113 1.29994C115.962 1.15581 118.915 1.73948 121.6 2.99995C123.6 3.89995 123.6 3.89995 123.1 5.79995Z" fill="black"/>
</g>
<defs>
<clipPath id="clip0_579_171">
<rect width="134" height="56" fill="white"/>
</clipPath>
</defs>
</svg>
