<?xml version="1.0" encoding="utf-8"?><svg xmlns="http://www.w3.org/2000/svg" xmlns:xlink="http://www.w3.org/1999/xlink"><symbol viewBox="0 0 134 56" id="cat-pro" xmlns="http://www.w3.org/2000/svg"><g clip-path="url(#aa)"><path d="M123.1 5.8a15.195 15.195 0 0 1 4.5-4.6c1-.7 1.6-.7 2.2.6.8 1.9 1.5 3.9.9 6a2.288 2.288 0 0 0 .4 2.1c.6.8 1.1 1.6 1.6 2.3a6.276 6.276 0 0 1 .9 6.2 5.428 5.428 0 0 0-.2 3.1c.2.99.2 2.01 0 3a3.75 3.75 0 0 1-2.7 3.2 5.21 5.21 0 0 0-3.2 2 1.051 1.051 0 0 1-.9.5c-1.2.2-4.2-2.5-4.2-3.7v-.6c.1-3.6-.1-3.9-3.4-5.4a4.384 4.384 0 0 1-1.8-1.2c-.6-.8-1.4-.7-2.3-.4-.9.3-1.4.9-1.3 1.9a44.19 44.19 0 0 1 .3 7.3c.007.278.075.551.2.8 3.1 4.5 4.3 9.8 5.8 14.9 1.2 3.9 3.4 6 7.4 6.3.64.051 1.275.151 1.9.3a4.159 4.159 0 0 1 3.4 3.2c.7 2.1.3 2.6-1.8 2.6h-6.5a3.238 3.238 0 0 1-2.3-.8 11.715 11.715 0 0 0-3.4-2 7.258 7.258 0 0 1-3.4-2.6 28.59 28.59 0 0 0-4-4.5c-2.8-2.9-5.8-5.7-8.4-8.7a11.381 11.381 0 0 1-3.2-7.6c0-.9-.2-1.3-1.2-.9-.3.19-.646.294-1 .3-2.8 0-4.2 1.7-5.2 4.2-.9 2.1-2.1 4.1-3.2 6.2a10.392 10.392 0 0 0-1 4.2c0 2.4.6 3.2 2.8 4 1.4.5 2.7 1 3.4 2.4.8 1.6.6 2-1.1 2.1h-6.8a1.88 1.88 0 0 1-1.9-1.1l-1.8-3a6.049 6.049 0 0 1-.7-5.4 11.86 11.86 0 0 0 .1-5.3 8.42 8.42 0 0 1 1.7-7c.6-.7.6-1-.4-1.2a50.059 50.059 0 0 1-11.8-4.1.1.1 0 0 1-.1-.1c-3.2-1.2-3.8-1-4.7 2.3-.8 2.8-1.6 5.6-2.2 8.5-.7 3.2.1 6.2 1.1 9.2.4 1.2 1.6 1.1 2.5 1.4 2 .6 3.7 1.4 4.5 3.5.7 1.6.6 1.8-1.1 1.8-1.7 0-3.4-.1-5.2 0a6.64 6.64 0 0 1-4.2-1.4c-4.8-3.2-6.2-8.1-6.6-13.4-.2-3.3-2-5.9-4.1-8.4-.4-.5-.8-.7-1.4-.3a44.312 44.312 0 0 1-6.7 3 26.71 26.71 0 0 0-12.2 8.8 10.63 10.63 0 0 0-2.2 5.1c-.3 1.8.2 2.6 2 3.1s2.7 1.5 2.9 3.4c.1.8-.2 1.2-1 1.2h-8.1a1.649 1.649 0 0 1-1.3-.8 8.56 8.56 0 0 1-1.9-5.5 50.6 50.6 0 0 1 .9-10.3 6.3 6.3 0 0 1 3.4-4.8c5.9-2.8 9-8.1 11.8-13.6.6-1.1.1-1.3-.9-1.2a16.472 16.472 0 0 0-7.7 3.2 70.633 70.633 0 0 0-8.3 7.1 16.67 16.67 0 0 1-10.3 4.9C3.1 32.5-.3 28.4 0 21.8a9.69 9.69 0 0 1 2.4-6.1 4.25 4.25 0 0 1 4.5-1.5c1.5.4 1.9 1.2 1.3 2.7-.3.6-.7 1.1-1 1.7a7.502 7.502 0 0 0-1 2c-1.1 3 .4 5.1 3.5 5.4 3.3.3 6-1.1 8.5-3.1a44.937 44.937 0 0 0 8-8.3 20.792 20.792 0 0 1 14.4-8.1c2.3-.3 4.3-1.3 6.5-1.9a41.51 41.51 0 0 1 12.7-1.8 13 13 0 0 0 5.8-1.1c4.9-2 10-2 15.1-1 4 .8 8 1.8 11.9 2.8a16.58 16.58 0 0 0 7-.2 67.799 67.799 0 0 1 13.4-2c2.962-.144 5.915.44 8.6 1.7 2 .9 2 .9 1.5 2.8Z"/></g><defs><clipPath id="aa"><path d="M0 0h134v56H0z"/></clipPath></defs></symbol><symbol viewBox="0 0 70 97" id="cat-slim" xmlns="http://www.w3.org/2000/svg"><g clip-path="url(#ba)"><path d="M54.84 0h-.38A3.5 3.5 0 0 0 53 1.59 15.54 15.54 0 0 0 51.71 5a1.63 1.63 0 0 1-1.48 1.34A7.34 7.34 0 0 0 45 10.12a27.31 27.31 0 0 0-1.85 4c-1.42 3.68-2.51 7.48-3.85 11.19C38.67 27 38.64 27 36.74 27c-2.27 0-2.11-.35-2.14 2.15 0 .79.24 1.19 1.08 1.15.26 0 .65-.13.75.21.1.34-.24.49-.44.69a9 9 0 0 1-4.33 2.44c-1.9.51-3.84.91-5.69 1.53-4.75 1.59-9.14 3.81-12.56 7.57a28.002 28.002 0 0 0-4.74 7.84C5 59.22 3.22 68.32 1.84 77.51c-.65 4.31-1.11 8.64-1.46 13C.2 92.65 0 94.82 0 97h33.33a2.18 2.18 0 0 0-.23-1.28 5 5 0 0 0-3.83-3.07c-.7-.16-.78-.37-.35-.92a10.348 10.348 0 0 0 1.59-3.1c1.63-4.81 2.26-9.83 3.05-14.8A30.001 30.001 0 0 1 37 63a21.6 21.6 0 0 1 5.59-6.37c.83-.63.86-.63 1 .44.1.71.12 1.44.17 2.16.3 4.724.24 9.465-.18 14.18a61.669 61.669 0 0 0-.15 11A75.16 75.16 0 0 0 45.7 97H59a5.41 5.41 0 0 0-4.24-4.44 9 9 0 0 0-3.76.2c-.6.14-.85 0-.9-.65a56.351 56.351 0 0 1 1-15.82 177.734 177.734 0 0 0 3.06-18.18 17.749 17.749 0 0 1 2.28-7c1.19-2.12 2.23-4.32 3.4-6.45a5.871 5.871 0 0 0 .42-5.19c-.27-.71-.53-1.43-.86-2.11-1-1.95-2-3.88-2.92-5.85-.49-1-.38-1.12.71-1.15 1.63 0 1.63 0 1.66-1.64v-.66c0-.69-.26-1.07-1-1h-1.52c-.69 0-.89-.29-.72-1a6.24 6.24 0 0 1 5.13-4.43 22 22 0 0 1 6.62.43 1 1 0 0 0 1.25-.64c.4-1 .84-2 1.29-3a1 1 0 0 0-.1-1.14C66.6 13.22 63.13 9.43 58.4 7a1.49 1.49 0 0 1-.88-1.12 19.599 19.599 0 0 0-1.27-4.16A3.5 3.5 0 0 0 54.84 0Z"/></g><defs><clipPath id="ba"><path d="M0 0h70v97H0z"/></clipPath></defs></symbol><symbol viewBox="0 0 28 33" id="socials--icon_facebook" xmlns="http://www.w3.org/2000/svg"><path d="M21 2.75h-3.5c-1.547 0-3.03.71-4.125 1.974-1.094 1.264-1.708 2.98-1.708 4.767v4.045h-3.5v5.393h3.5v10.786h4.666V18.929h3.5L21 13.536h-4.667V9.49c0-.358.123-.7.342-.953.219-.253.516-.395.825-.395H21V2.75Z"/></symbol><symbol viewBox="0 0 23 23" id="socials--icon_instagram" xmlns="http://www.w3.org/2000/svg"><g clip-path="url(#da)"><path d="M11.477.09c1.917 0 3.482.022 4.695.067 1.033.045 1.954.225 2.763.54a5.727 5.727 0 0 1 2.021 1.302 5.732 5.732 0 0 1 1.303 2.022c.314.808.494 1.729.539 2.762.045 1.213.067 2.778.067 4.694 0 1.917-.022 3.482-.067 4.695-.045 1.033-.225 1.954-.54 2.763a5.733 5.733 0 0 1-1.302 2.021 5.733 5.733 0 0 1-2.021 1.303c-.809.314-1.73.494-2.763.539-1.213.045-2.778.067-4.695.067-1.916 0-3.48-.022-4.694-.067-1.033-.045-1.954-.225-2.762-.54a5.732 5.732 0 0 1-2.022-1.302 5.733 5.733 0 0 1-1.303-2.021c-.314-.809-.494-1.73-.539-2.763a131.868 131.868 0 0 1-.067-4.695c0-1.916.022-3.48.067-4.694.045-1.033.225-1.954.54-2.762a5.713 5.713 0 0 1 1.302-2.022A5.731 5.731 0 0 1 4.021.696C4.829.382 5.75.202 6.783.157 7.996.112 9.561.09 11.477.09Zm0 1.482c-1.991 0-3.616.023-4.873.068a7.21 7.21 0 0 0-2.247.426c-1.078.45-1.841 1.213-2.29 2.291a7.21 7.21 0 0 0-.427 2.247 142.032 142.032 0 0 0-.068 4.873c0 1.992.023 3.617.068 4.875a7.21 7.21 0 0 0 .426 2.246c.45 1.078 1.213 1.841 2.291 2.29a7.211 7.211 0 0 0 2.247.427c1.257.045 2.882.068 4.873.068 1.992 0 3.617-.023 4.875-.068a7.211 7.211 0 0 0 2.246-.426c1.078-.45 1.841-1.213 2.29-2.291a7.211 7.211 0 0 0 .427-2.246c.045-1.258.068-2.883.068-4.875 0-1.991-.023-3.616-.068-4.873a7.211 7.211 0 0 0-.426-2.247c-.45-1.078-1.213-1.841-2.291-2.29a7.21 7.21 0 0 0-2.246-.427 142.035 142.035 0 0 0-4.875-.068Zm0 14.465c1.258 0 2.333-.445 3.224-1.336.89-.891 1.336-1.966 1.336-3.224 0-1.257-.445-2.332-1.336-3.223-.891-.89-1.966-1.336-3.224-1.336-1.257 0-2.332.445-3.223 1.336-.89.891-1.336 1.966-1.336 3.223 0 1.258.445 2.333 1.336 3.224.891.89 1.966 1.336 3.223 1.336Zm0-10.4c1.618 0 2.995.57 4.133 1.708s1.707 2.515 1.707 4.132c0 1.618-.569 2.995-1.707 4.133-1.138 1.138-2.515 1.707-4.133 1.707-1.617 0-2.994-.569-4.132-1.707-1.138-1.138-1.707-2.515-1.707-4.133 0-1.617.569-2.994 1.707-4.132 1.138-1.138 2.515-1.707 4.132-1.707Zm7.458-.224c0 .374-.135.693-.405.955s-.599.393-.988.393a1.3 1.3 0 0 1-.955-.393 1.3 1.3 0 0 1-.393-.955c0-.39.131-.719.393-.988.262-.27.58-.404.955-.404.374 0 .7.138.977.415.277.277.416.603.416.977Z"/></g><defs><clipPath id="da"><path d="M0 0h23v23H0z"/></clipPath></defs></symbol><symbol viewBox="0 0 30 22" id="socials--icon_vkontakte" xmlns="http://www.w3.org/2000/svg"><path d="M.091 5.49c0-.855.552-1.316 1.656-1.383l4.254.025c.285 0 .475.126.57.377.438 1.258.928 2.343 1.47 3.257.543.913 1.252 1.966 2.127 3.156.076.15.2.226.371.226a.356.356 0 0 0 .314-.176l.086-.277.029-4.35c0-.302-.081-.503-.243-.604-.162-.1-.462-.176-.9-.226-.342-.05-.513-.235-.513-.553 0-.067.01-.118.028-.151.4-1.09 1.542-1.635 3.426-1.635l1.599-.025c.723 0 1.322.16 1.798.478.476.318.714.821.714 1.509v5.708a.707.707 0 0 0 .37.126c.286 0 .534-.15.743-.452 2.093-2.582 3.226-4.31 3.397-5.181a.41.41 0 0 1 .057-.126c.133-.251.352-.47.657-.654.304-.184.57-.31.799-.377a.63.63 0 0 1 .257-.05h4.425l.285.025a1 1 0 0 1 .885.478c.076.1.128.21.157.327.029.117.047.234.057.352.01.117.014.184.014.201v.176c-.133.687-.47 1.42-1.013 2.2-.543.78-1.232 1.623-2.07 2.528-.837.905-1.36 1.5-1.57 1.785-.171.202-.257.386-.257.554 0 .134.076.285.229.452l4.168 4.627c.228.269.342.562.342.88 0 .386-.171.705-.514.956-.342.252-.752.394-1.227.428l-.486.025h-4.339c-.019 0-.057.004-.114.012a.988.988 0 0 1-.114.013c-.419 0-.809-.16-1.17-.478-.134-.134-1.028-1.123-2.684-2.967a1.457 1.457 0 0 0-.4-.327c-.075.268-.175.654-.3 1.157a83.81 83.81 0 0 1-.27 1.081l-.086.428c-.19.586-.59.938-1.199 1.056l-.4.025H12.71c-1.58 0-3.154-.637-4.725-1.911-1.57-1.274-2.983-2.922-4.239-4.942C2.49 11.253 1.32 8.902.235 6.22a1.804 1.804 0 0 1-.144-.73Zm17.157 6.513c-.4 0-.762-.096-1.085-.289-.324-.193-.485-.457-.485-.792V5.138c0-.335-.095-.574-.286-.717-.19-.142-.523-.214-.999-.214l-1.627.05c-.818 0-1.437.126-1.855.378.837.352 1.255.922 1.255 1.71v4.426c-.037.42-.228.767-.57 1.044a1.774 1.774 0 0 1-1.142.415c-.571 0-1.009-.244-1.313-.73-1.485-1.978-2.589-3.856-3.312-5.633l-.257-.654-3.796-.025c-.248 0-.386.013-.414.038-.029.025-.043.096-.043.214 0 .15.019.31.057.477l.6 1.409c1.598 3.638 3.335 6.505 5.21 8.6 1.874 2.096 3.715 3.144 5.523 3.144h2.854c.115 0 .2-.03.257-.088.058-.059.105-.172.143-.34l.057-.251.543-2.213c.152-.302.285-.503.4-.604.209-.184.456-.276.741-.276.457 0 .924.243 1.4.729l2.426 2.716c.152.218.314.327.485.327h4.71c.571 0 .857-.126.857-.378a.444.444 0 0 0-.086-.25l-4.14-4.553c-.323-.352-.485-.729-.485-1.131 0-.403.153-.788.457-1.157.248-.336.728-.893 1.442-1.673a38.176 38.176 0 0 0 1.87-2.187c.532-.68.884-1.295 1.056-1.849l.085-.327a.347.347 0 0 1-.028-.163.538.538 0 0 0-.029-.189h-4.482a1.56 1.56 0 0 0-.685.453l-.17.478c-.477 1.157-1.723 2.942-3.74 5.356a2.11 2.11 0 0 1-1.4.503Z"/></symbol><symbol fill="none" viewBox="0 0 163 34" id="static--html-logo" xmlns="http://www.w3.org/2000/svg"><path d="M1.281 21V9.547h1.516v4.703H8.75V9.547h1.516V21H8.75v-5.398H2.797V21H1.28Zm14.43 0V10.898h-3.774V9.547h9.079v1.351h-3.79V21h-1.515Zm6.82 0V9.547h2.282l2.71 8.11c.25.755.433 1.32.547 1.695.13-.417.334-1.03.61-1.836l2.742-7.97h2.039V21H32v-9.586L28.672 21h-1.367l-3.313-9.75V21h-1.46Zm13.313 0V9.547h1.515v10.101H43V21h-7.156Zm10.68 0 4.398-11.453h1.633L57.242 21h-1.726l-1.336-3.469h-4.79L48.134 21h-1.61Zm3.304-4.703h3.883l-1.195-3.172a31.339 31.339 0 0 1-.813-2.375 14.588 14.588 0 0 1-.617 2.188l-1.258 3.359Zm13.86 1.664 1.382.18c-.15.953-.539 1.7-1.164 2.242-.62.536-1.383.805-2.289.805-1.135 0-2.05-.37-2.742-1.11-.688-.745-1.031-1.81-1.031-3.195 0-.896.148-1.68.445-2.352.297-.672.747-1.174 1.352-1.508a4.02 4.02 0 0 1 1.984-.507c.901 0 1.638.229 2.21.687.574.453.941 1.1 1.102 1.938l-1.367.21c-.13-.557-.362-.976-.695-1.257-.328-.281-.727-.422-1.195-.422-.709 0-1.284.255-1.727.765-.443.506-.664 1.308-.664 2.407 0 1.114.214 1.924.64 2.43.428.505.985.757 1.673.757.552 0 1.013-.169 1.382-.508.37-.338.605-.859.703-1.562Zm8 2.016c-.521.442-1.024.755-1.508.937-.48.182-.995.273-1.547.273-.912 0-1.612-.22-2.102-.664-.49-.447-.734-1.018-.734-1.71 0-.407.091-.776.273-1.11.188-.338.43-.61.727-.812.302-.203.64-.357 1.016-.461.275-.073.692-.143 1.25-.211 1.135-.136 1.97-.297 2.507-.485.006-.192.008-.315.008-.367 0-.573-.133-.976-.398-1.21-.36-.319-.894-.477-1.602-.477-.661 0-1.15.117-1.469.351-.312.23-.544.638-.695 1.227l-1.375-.188c.125-.588.33-1.062.617-1.422.287-.364.7-.643 1.242-.835.542-.198 1.17-.297 1.883-.297.709 0 1.284.083 1.727.25.443.166.768.377.976.632.209.25.355.568.438.954.047.24.07.671.07 1.296v1.875c0 1.308.029 2.136.086 2.485.063.344.182.674.36.992h-1.47a2.981 2.981 0 0 1-.28-1.023Zm-.118-3.141c-.51.208-1.276.385-2.297.531-.578.084-.986.177-1.226.281a1.214 1.214 0 0 0-.75 1.125c0 .375.14.688.422.938.286.25.703.375 1.25.375.541 0 1.023-.117 1.445-.352.422-.24.732-.565.93-.976.15-.318.226-.787.226-1.406v-.516ZM80.563 21v-1.047c-.526.823-1.3 1.235-2.32 1.235a3.278 3.278 0 0 1-1.829-.547c-.552-.365-.982-.873-1.289-1.524-.302-.656-.453-1.409-.453-2.258 0-.828.138-1.578.414-2.25.276-.677.69-1.195 1.242-1.554.552-.36 1.17-.54 1.852-.54.5 0 .945.107 1.336.32.39.21.708.483.953.821v-4.11h1.398V21h-1.305Zm-4.446-4.14c0 1.062.224 1.856.672 2.382.448.526.977.79 1.586.79.615 0 1.135-.25 1.563-.75.432-.506.648-1.274.648-2.305 0-1.136-.219-1.97-.656-2.5-.438-.532-.977-.797-1.618-.797-.624 0-1.148.255-1.57.765-.416.51-.625 1.315-.625 2.414Zm13.649 1.468 1.453.18c-.23.849-.654 1.508-1.274 1.976-.62.47-1.411.703-2.375.703-1.213 0-2.177-.372-2.89-1.117-.709-.75-1.063-1.8-1.063-3.148 0-1.396.36-2.48 1.078-3.25.72-.771 1.651-1.156 2.797-1.156 1.11 0 2.016.377 2.719 1.132.703.756 1.055 1.818 1.055 3.188 0 .083-.003.208-.008.375H85.07c.052.911.31 1.61.774 2.094.463.484 1.041.726 1.734.726.516 0 .956-.135 1.32-.406.365-.27.654-.703.868-1.297Zm-4.618-2.273h4.633c-.062-.698-.24-1.222-.531-1.57-.448-.542-1.029-.813-1.742-.813-.646 0-1.19.216-1.633.648-.438.433-.68 1.01-.727 1.735ZM92.992 21v-8.297h1.258v1.164c.26-.406.607-.732 1.04-.976.431-.25.923-.375 1.476-.375.614 0 1.117.127 1.507.382.396.256.675.612.836 1.07.657-.968 1.511-1.452 2.563-1.452.823 0 1.456.229 1.898.687.443.453.664 1.154.664 2.102V21h-1.398v-5.227c0-.562-.047-.966-.141-1.21a1.15 1.15 0 0 0-.492-.602 1.548 1.548 0 0 0-.844-.227c-.583 0-1.067.196-1.453.586-.385.386-.578 1.005-.578 1.86V21h-1.406v-5.39c0-.626-.115-1.094-.344-1.407-.229-.312-.604-.469-1.125-.469-.396 0-.763.104-1.101.313a1.778 1.778 0 0 0-.727.914c-.151.401-.227.98-.227 1.734V21h-1.406Zm13.266 3.195-.156-1.32c.307.083.575.125.804.125.313 0 .563-.052.75-.156.188-.104.341-.25.461-.438.089-.14.232-.49.43-1.047.026-.078.068-.192.125-.343l-3.149-8.313h1.516l1.727 4.805c.224.61.424 1.25.601 1.922a18.98 18.98 0 0 1 .578-1.89l1.774-4.837h1.406l-3.156 8.438c-.339.911-.602 1.539-.789 1.882-.25.464-.537.803-.86 1.016-.323.219-.708.328-1.156.328-.271 0-.573-.057-.906-.172Z" fill="#444"/><g clip-path="url(#fa)"><path d="M149.643.016 149.5 0 136 1.407v24.606L149.5 34l13.5-7.987V1.407L149.643.016Zm11.591 25-11.734 6.94-11.734-6.942V14.93l11.685 6.916.019 1.253-8.016-4.743-.011 1.225 8.046 4.809.02 1.286-8.045-4.758-.01 1.226 8.046 4.808 8.124-4.833V16.91l3.619-2.15-.009 10.256Zm0-11.564-3.219 1.88-1.482.875-7.066-4.187-.011 1.225 6.04 3.573-.053.031-.13.076-.859.492-4.987-2.948-.011 1.225 3.936 2.328-.933.61-.021.012-2.971-1.742-.011 1.225 1.947 1.135-1.987 1.186-11.619-6.872 11.638-6.958 11.799 6.834Zm0-1.225L149.44 5.31l-11.674 6.909V2.99L149.5 1.764l11.734 1.226v9.237Z" fill="#666"/></g><defs><clipPath id="fa"><path fill="#fff" transform="translate(136)" d="M0 0h27v34H0z"/></clipPath></defs></symbol><symbol fill="none" viewBox="0 0 202 59" id="static--logo" xmlns="http://www.w3.org/2000/svg"><g clip-path="url(#ga)"><path d="M59.882 23.806A25.43 25.43 0 0 0 51.83 13.43a25.724 25.724 0 0 0-12.193-5.02 25.804 25.804 0 0 0-13.093 1.671 25.59 25.59 0 0 0-10.515 7.916 25.297 25.297 0 0 0-5.144 12.06 25.213 25.213 0 0 0 1.594 12.997 25.423 25.423 0 0 0 7.91 10.484 25.72 25.72 0 0 0 12.122 5.184c-.58-2.073-1.17-4.364-1.69-6.794a32.416 32.416 0 0 0 4.76 2.529s.12 2.142.28 4.533c1.789.03 3.575-.126 5.33-.466a2.108 2.108 0 0 1 0-.754c.29-1.855 1.09-5.198 1.25-7.35a15.116 15.116 0 0 0 2.9-3.68l-.06.436c-.55 4.226-1.7 8.74-2.4 9.989a5.532 5.532 0 0 1-.83 1.14 25.731 25.731 0 0 0 9.941-4.727 25.482 25.482 0 0 0 7.02-8.43 25.25 25.25 0 0 0 .87-21.341Zm-1.47 3.76c-.44.426-1.35.714-1.5-.576-.15-1.29-.19-2.192-.19-2.192s-1.93-3.402-2.65-3.442c-.72-.04-5.83 3.442-7.18 4.96-1.17 1.28-1.4 1.19-1.4 3.442 0 1.696.22 8.104.1 13.004l-8.15 2.153a64.47 64.47 0 0 1-7.801 1.706l-1-5.783h-.14l-2.57-13.064s-3.81-1.428-5.21-1.815a3.788 3.788 0 0 0-4 .625 5.031 5.031 0 0 0-1.286 1.722 4.992 4.992 0 0 0-.445 2.097c.211.46.373.943.48 1.438.05.476-1.2.426-2 .426s-.92-1.428-.29-3.104c.492-1.29 1.1-2.531 1.82-3.71a11.776 11.776 0 0 1 2.07-2.867s.14-.337 1.25-.238c1.11.1 7.28.427 7.28.427l.05-2.252a143.929 143.929 0 0 1 20.242-1.33v1.816a22.671 22.671 0 0 1 8.14-1.984.916.916 0 0 1 .77.387c.34.427 2.41 2.976 2.65 3.343a27.73 27.73 0 0 1 1.83 2.976 6.164 6.164 0 0 1-.87 1.825v.01Z" fill="#FDC305"/><path d="M56.463 21.495c.47.595.88 1.121 1 1.28a27.73 27.73 0 0 1 1.83 2.976c-.19.63-.48 1.226-.86 1.765-.44.427-1.35.714-1.5-.575-.15-1.29-.21-2.143-.21-2.143s-1.93-3.402-2.65-3.442c-.72-.04-5.83 3.442-7.18 4.96-1.17 1.28-1.4 1.19-1.4 3.442 0 1.488.17 6.596.13 11.14 1.81.198 4.47.694 5.27 1.864 0 0-.29-7.122 7.81-3.392 0 0 .28-9.711 11.46-7.222a43.672 43.672 0 0 0-13.7-10.653Zm-10.531-2.301a89.006 89.006 0 0 0-1.4-16.397s-.15-1.29-.87-.238a14.06 14.06 0 0 0-1.2 3.968 71.46 71.46 0 0 0-12.82.337c-.82-2.728-2.22-3.968-2.89-3.64-.67.327-.75 3.253-.75 3.253l-.33 14.046a143.942 143.942 0 0 1 20.26-1.33Z" fill="#F06351"/><path d="M45.352 46.74c.13-1.062.2-2.47.24-4.028l-8.15 2.153a64.43 64.43 0 0 1-7.8 1.756l1.11 4.96c0 .108 0 .218.07.327a32.403 32.403 0 0 0 4.76 2.53 42.49 42.49 0 0 0 6.88-4.098v.06a15.117 15.117 0 0 0 2.89-3.66Z" fill="#E55645"/><path d="M32.002 16.09c-.05-.1 1 .674 1.41.912.41.238.61.416.61.585 0 .169-.26.337-.62.337s-.92-.119-1-.258c-.08-.139.6 0 .94 0h.29a8.054 8.054 0 0 1-1.63-1.577Zm7.5.108s-1 1.27-1.09 1.33c-.09.059-.17.337.19.287a8.146 8.146 0 0 0 1.22-.278c.11-.06.07-.198-.12-.178-.19.02-.68.05-1 .109l.85-1.26s.03-.119-.05-.01Zm-3.14 6.061a2.293 2.293 0 0 0 1.09-.992c.28-.655 0-.903-.44-.992-.605-.11-1.23.01-1.75.337-.39.367-.34.724 0 .992.338.263.707.483 1.1.655Z" fill="#000"/><path d="M36.002 23.509a2.036 2.036 0 0 1-.46.595c-.285.227-.635.36-1 .377a2.193 2.193 0 0 1-1.54-.437 1.996 1.996 0 0 1-.53-.446 1.001 1.001 0 0 0-.36-.248s.75 4.077 2.57 4.731c1.82.655 2.16-.753 2.21-1.13a5.55 5.55 0 0 0-.82-3.214c0-.298-.02-.1-.07-.228Z" fill="#F06351"/><path d="M34.302 24.64a3.518 3.518 0 0 1-2.35-1.419.148.148 0 0 1 0-.198.141.141 0 0 1 .2 0 3.21 3.21 0 0 0 2.11 1.3 2.122 2.122 0 0 0 1.64-.993l.14-.188.1.218s.38.754 1 .794c.62.04 1.06-.417 1.63-1.28a.144.144 0 0 1 .2-.04.143.143 0 0 1 .04.199c-.667.972-1.297 1.438-1.89 1.398a1.557 1.557 0 0 1-1.12-.724 2.255 2.255 0 0 1-1.7.933Z" fill="#000"/><path d="M36.262 37.99c2.07 0 3.75-1.665 3.75-3.719s-1.68-3.72-3.75-3.72c-2.071 0-3.75 1.666-3.75 3.72 0 2.054 1.679 3.72 3.75 3.72Z" fill="#FDC305"/><path d="m41.231 31.246-3.13 1.3 1.15-5.585-7.5 9.68 3.13-1.299-1.15 5.595 7.5-9.691Zm-7.39 3.799 4.16-5.367-.81 3.968 2-.813-4.19 5.376.81-3.968-1.97.804Zm-1.399-1.458c.618 0 1.12-.498 1.12-1.111 0-.614-.502-1.111-1.12-1.111-.619 0-1.12.497-1.12 1.11 0 .614.501 1.112 1.12 1.112Zm6.52 4.027c.436 0 .79-.35.79-.784a.787.787 0 0 0-.79-.783c-.436 0-.79.35-.79.783 0 .433.354.784.79.784Zm.96-2.152a.35.35 0 0 0 .35-.348.349.349 0 0 0-.35-.347.349.349 0 0 0-.35.347c0 .192.156.348.35.348Z" fill="#111"/><path d="M45.882 20.99a57.219 57.219 0 0 0-5.09 5.167 31.79 31.79 0 0 1-5.31 4.86c-.22-.525-1.63-1.507-1.63-1.507s-3.14-2.133-5.2-3.81a31.78 31.78 0 0 1-3.14-2.975l-2-.109a22.62 22.62 0 0 0 12 8.769c.86-.14 3.28-1.855 5.09-3.254a57.44 57.44 0 0 0 6-5.862 6.315 6.315 0 0 0 1.14-1.984c-1.14.377-1.86.704-1.86.704Z" fill="#F06351"/><path d="m65.223 3.472-8.46 9.364-1.22-1.974L63.693 0l1.53 3.472Zm-2.57 13.648 5.54-4.076-.78-3.71-5.4 4.771.64 3.016Zm-2.73 31.852 6.13 3.154 3.01-2.321-6.69-2.728-2.45 1.895ZM1.95 5.922l3.07-3.333 9.29 8.927-1.22 2.262L1.95 5.922Zm5.43 10.227-4.7-3.105-2.4 3.839 5.15 2.38 1.95-3.114Zm6.53 35.977-4.55 3.323L12.16 59l4.02-3.988-2.27-2.886Z" fill="#FDC305"/><path d="M25.931 27.774s-3.81-1.428-5.21-1.815a3.789 3.789 0 0 0-4 .625 5.032 5.032 0 0 0-1.285 1.722 4.994 4.994 0 0 0-.445 2.097c.211.46.372.943.48 1.438.05.476-1.2.426-2 .426s-.92-1.428-.29-3.104c.491-1.29 1.1-2.531 1.82-3.71C9.55 28.27 0 34.777 0 34.777a46.196 46.196 0 0 1 8.19.238c5.25.526 5 4.633 5 4.633a38.91 38.91 0 0 1 5.63-1.102c2.121-.138 2.271 2.103 2.271 2.103l.53 3.83a18.243 18.243 0 0 1 2.65-2.342 6.095 6.095 0 0 1 4.38-1.29l-2.72-13.073Z" fill="#F06351"/><path d="M85.664 41.661a8.174 8.174 0 0 1-1.4-5.148v-7.44a8.301 8.301 0 0 1 1.38-5.197c.927-1.184 2.51-1.773 4.75-1.766 2.24.007 3.757.526 4.55 1.557a6.627 6.627 0 0 1 1.33 4.454v1.746h-4.14v-1.895a9.84 9.84 0 0 0-.13-1.488 1.66 1.66 0 0 0-.47-.942 1.561 1.561 0 0 0-1.15-.367 1.47 1.47 0 0 0-1.5.744 5.388 5.388 0 0 0-.34 2.182v9.444a4.71 4.71 0 0 0 .39 2.182 1.49 1.49 0 0 0 1.45.724 1.354 1.354 0 0 0 1.4-.734 5.75 5.75 0 0 0 .31-2.172V35.56h4.14v1.716a7.147 7.147 0 0 1-1.23 4.572c-.88 1.092-2.4 1.627-4.56 1.627-2.16 0-3.85-.595-4.78-1.815Zm16.251-19.263h4.74l4 20.83h-3.94l-.71-4.602h-3.32l-.8 4.573h-4l4.03-20.801Zm3.65 13.609-1.26-8.372-1.25 8.372h2.51Zm8.16-10.475h-3.24v-3.134h10.72v3.134h-3.2V43.2h-4.29l.01-17.667Z" fill="#111"/><path d="M129.616 22.398h8.13v2.162h-5.2v6.874h4.22v2.053h-4.22v7.628h5.25V43.2h-8.18V22.398Zm10.541 0h2l6 13.817V22.398h2.44v20.83h-1.87l-6-14.204v14.175h-2.48l-.09-20.801Zm13.671 0h8.12v2.162h-5.2v6.874h4.26v2.053h-4.22v7.628h5.22V43.2h-8.18V22.398Zm10.53 0h4.22a7.042 7.042 0 0 1 4.67 1.3c1 .862 1.49 2.27 1.49 4.225 0 2.645-.863 4.262-2.59 4.85l3 10.426h-2.84l-2.75-9.761h-2.27v9.76h-2.93v-20.8Zm4 8.927a3.893 3.893 0 0 0 2.7-.754 3.536 3.536 0 0 0 .82-2.688 5.76 5.76 0 0 0-.29-1.984 1.87 1.87 0 0 0-1-1.071 4.793 4.793 0 0 0-2.05-.347h-1.29v6.884l1.11-.04Zm10.321 10.336a9.113 9.113 0 0 1-1.27-5.307v-6.943a13.27 13.27 0 0 1 .5-3.968 4.438 4.438 0 0 1 1.74-2.39 5.947 5.947 0 0 1 3.36-.834 5.298 5.298 0 0 1 4.18 1.468 6.91 6.91 0 0 1 1.28 4.593v.774h-2.75v-.645a11.38 11.38 0 0 0-.18-2.301 1.99 1.99 0 0 0-.76-1.22 3.022 3.022 0 0 0-1.72-.407 2.532 2.532 0 0 0-1.81.555 2.53 2.53 0 0 0-.77 1.468 14.484 14.484 0 0 0-.17 2.47v7.727a7.378 7.378 0 0 0 .59 3.432 2.847 2.847 0 0 0 4.47-.09 8.008 8.008 0 0 0 .61-3.62v-1.467h-2.66v-2.054h5.3V43.2h-1.81l-.29-2.391a3.666 3.666 0 0 1-1.4 1.969c-.677.48-1.499.72-2.33.68a4.696 4.696 0 0 1-2.288-.375 4.656 4.656 0 0 1-1.822-1.42Zm16.02-5.803-4.53-13.46h2.72l3.21 10.038 3.16-10.038h2.75l-4.5 13.46v7.34h-2.8l-.01-7.34Z" fill="#444"/></g><defs><clipPath id="ga"><path fill="#fff" d="M0 0h202v59H0z"/></clipPath></defs></symbol><symbol fill="none" viewBox="0 0 128 24" id="static--text-logo" xmlns="http://www.w3.org/2000/svg"><g clip-path="url(#ha)" fill="#111"><path d="M1.603 22.051A9.498 9.498 0 0 1 0 16.308V7.795a9.63 9.63 0 0 1 1.502-5.846C2.604.615 4.307 0 6.811 0s4.106.615 5.108 1.744a7.487 7.487 0 0 1 1.502 5.025v2.052H8.513V6.46a5.157 5.157 0 0 0-.3-2.05 1.463 1.463 0 0 0-.579-.63 1.415 1.415 0 0 0-.823-.191c-.701 0-1.202.205-1.403.718a6.774 6.774 0 0 0-.3 2.256v10.974a4.334 4.334 0 0 0 .4 2.154c.2.513.702.718 1.403.718.7 0 1.102-.205 1.302-.718.228-.693.33-1.423.3-2.154v-2.461h4.908v2.051a7.98 7.98 0 0 1-1.502 5.128c-1.002 1.231-2.705 1.847-5.108 1.847-2.404-.103-4.207-.718-5.208-2.052ZM19.33.308h5.71l4.206 23.384h-4.607l-.802-4.923h-3.305l-.801 4.923h-4.708L19.33.308Zm4.107 15.384-1.202-9.128-1.202 9.128h2.404Zm9.314-11.487h-3.405V.308h11.918v3.794H37.86v19.59h-5.108V4.205ZM50.379.308h8.814v2.461h-5.71v7.692h4.608v2.36h-4.607v8.615h5.709v2.359h-8.914V.308h.1Zm11.418 0H64l6.51 15.487V.308h2.604v23.384h-2.003l-6.61-16v16h-2.705V.308Zm14.322 0h8.814v2.461h-5.71v7.692h4.608v2.36h-4.607v8.615h5.709v2.359h-8.814V.308Zm11.418 0h4.607a7.874 7.874 0 0 1 5.108 1.436c1.102.923 1.603 2.564 1.603 4.717 0 2.975-.902 4.821-2.805 5.436l3.205 11.693H96.15l-3.004-10.975h-2.504V23.59h-3.205V.308h.1Zm4.407 10.05a4.301 4.301 0 0 0 2.904-.82c.601-.512.902-1.538.902-3.077a6.775 6.775 0 0 0-.3-2.256 2.583 2.583 0 0 0-1.103-1.23 4.473 4.473 0 0 0-2.203-.411h-1.402v7.692h1.202v.103Zm10.917 11.591a10.575 10.575 0 0 1-1.403-5.95V8.206c-.024-1.486.144-2.97.501-4.41a5.204 5.204 0 0 1 1.903-2.667 6.421 6.421 0 0 1 3.706-.923c2.103 0 3.606.513 4.507 1.641a7.982 7.982 0 0 1 1.402 5.128v.82h-3.004v-.717a15.503 15.503 0 0 0-.201-2.564 2.056 2.056 0 0 0-.801-1.334 3.04 3.04 0 0 0-1.903-.512 2.955 2.955 0 0 0-2.003.615 2.349 2.349 0 0 0-.801 1.641 19.734 19.734 0 0 0-.201 2.77v8.717a9.527 9.527 0 0 0 .601 3.898c.401.82 1.202 1.128 2.404 1.128a2.38 2.38 0 0 0 1.384-.243 2.457 2.457 0 0 0 1.02-.988 9.635 9.635 0 0 0 .701-4.102V14.46h-2.905v-2.359h5.809v11.59h-2.003l-.3-2.666a4.186 4.186 0 0 1-1.554 2.21 4.016 4.016 0 0 1-2.553.764 4.907 4.907 0 0 1-2.406-.47 5.037 5.037 0 0 1-1.9-1.581Zm17.127-6.462L115.08.41h3.005l3.505 11.282L124.995.41H128l-4.908 15.077v8.205h-3.004v-8.205h-.1Z"/></g><defs><clipPath id="ha"><path fill="#fff" d="M0 0h128v24H0z"/></clipPath></defs></symbol><symbol viewBox="0 0 32 33" id="steps--alarm" xmlns="http://www.w3.org/2000/svg"><ellipse cx="21.204" cy="11.33" rx="1.087" ry="1.085"/><ellipse cx="10.331" cy="11.33" rx="1.087" ry="1.085"/><ellipse cx="10.331" cy="24.351" rx="1.087" ry="1.085"/><ellipse cx="15.768" cy="26.521" rx="1.087" ry="1.085"/><ellipse cx="7.069" cy="17.775" rx="1.087" ry="1.085"/><ellipse cx="24.466" cy="17.775" rx="1.087" ry="1.085"/><ellipse cx="21.204" cy="24.351" rx="1.087" ry="1.085"/><mask id="ia"><path d="M15.768 5C22.523 5 28 10.648 28 17.614c0 3.855-1.676 7.305-4.318 9.62-.46.402-.523 1.114-.098 1.551l1.357 1.393a.682.682 0 0 1-.977.95l-1.826-1.874a1.058 1.058 0 0 0-1.217-.196 11.876 11.876 0 0 1-5.153 1.17c-1.882 0-3.665-.437-5.258-1.22a1.058 1.058 0 0 0-1.226.191l-1.88 1.93a.682.682 0 1 1-.977-.951l1.435-1.473c.423-.434.362-1.14-.09-1.544-2.594-2.313-4.236-5.732-4.236-9.547C3.536 10.648 9.012 5 15.768 5Zm0 1.401c-6.005 0-10.873 5.02-10.873 11.213s4.868 11.213 10.873 11.213c6.005 0 10.873-5.02 10.873-11.213 0-6.192-4.868-11.213-10.873-11.213Zm.022 2.758c.43 0 .78.35.78.781v8.183a.803.803 0 0 1-.802.803.76.76 0 0 1-.76-.76V9.94c0-.43.35-.78.782-.78Z"/></mask><path d="M15.768 5C22.523 5 28 10.648 28 17.614c0 3.855-1.676 7.305-4.318 9.62-.46.402-.523 1.114-.098 1.551l1.357 1.393a.682.682 0 0 1-.977.95l-1.826-1.874a1.058 1.058 0 0 0-1.217-.196 11.876 11.876 0 0 1-5.153 1.17c-1.882 0-3.665-.437-5.258-1.22a1.058 1.058 0 0 0-1.226.191l-1.88 1.93a.682.682 0 1 1-.977-.951l1.435-1.473c.423-.434.362-1.14-.09-1.544-2.594-2.313-4.236-5.732-4.236-9.547C3.536 10.648 9.012 5 15.768 5Zm0 1.401c-6.005 0-10.873 5.02-10.873 11.213s4.868 11.213 10.873 11.213c6.005 0 10.873-5.02 10.873-11.213 0-6.192-4.868-11.213-10.873-11.213Zm.022 2.758c.43 0 .78.35.78.781v8.183a.803.803 0 0 1-.802.803.76.76 0 0 1-.76-.76V9.94c0-.43.35-.78.782-.78Z"/><path d="M15.768 5V1v4ZM28 17.614h4-4Zm-4.318 9.62 2.636 3.008-2.636-3.009Zm-.098 1.551-2.865 2.79v.001l2.865-2.79Zm1.357 1.393 2.866-2.79v-.001l-2.866 2.79Zm0 .95 2.866 2.792-2.866-2.791Zm-.977 0 2.866-2.79-2.866 2.79Zm-1.826-1.874 2.866-2.791-.001-.001-2.865 2.792Zm-1.217-.196-1.73-3.607 1.73 3.607Zm-5.153 1.17v4-4Zm-5.258-1.22-1.765 3.59 1.765-3.59Zm-1.226.191 2.865 2.791-2.865-2.79Zm-1.88 1.93-2.865-2.791 2.865 2.79Zm-.977 0L3.56 33.918l.002.002 2.865-2.791Zm0-.951-2.865-2.791 2.865 2.79Zm1.435-1.473 2.865 2.791.001-.001-2.866-2.79Zm-.09-1.544 2.663-2.985h-.001L7.772 27.16Zm-4.236-9.547h-4 4ZM15.768 6.401v-4 4ZM4.895 17.614h-4 4Zm10.873 11.213v4-4Zm10.873-11.213h4-4ZM15.79 9.16v-4 4Zm.78.781h4v-.002l-4 .002Zm0 8.183 4 .002v-.002h-4Zm-.802.803v4h.002l-.002-4Zm-.76-8.986-4-.002v.002h4Zm.76-4.94v4C20.199 9 24 12.74 24 17.614h8C32 8.555 24.849 1 15.769 1v4ZM28 17.614h-4c0 2.677-1.16 5.04-2.953 6.61l2.635 3.01 2.636 3.008C29.808 27.186 32 22.646 32 17.614h-4Zm-4.318 9.62-2.635-3.01c-1.996 1.748-2.522 5.099-.328 7.352l2.865-2.79 2.866-2.792c1.343 1.379.945 3.305-.132 4.248l-2.636-3.009Zm-.098 1.551-2.865 2.791 1.357 1.393 2.865-2.791 2.865-2.791-1.356-1.393-2.866 2.791Zm1.357 1.393-2.866 2.79a3.318 3.318 0 0 1 0-4.63l2.866 2.79 2.866 2.791a4.682 4.682 0 0 0 0-6.532l-2.866 2.79Zm0 .95-2.866-2.79a3.319 3.319 0 0 1 4.755 0l-2.866 2.79L21.1 33.92a4.681 4.681 0 0 0 6.708 0l-2.866-2.791Zm-.977 0 2.866-2.79-1.826-1.875-2.866 2.79-2.865 2.792 1.826 1.875 2.865-2.791Zm-1.826-1.874 2.865-2.792c-1.614-1.656-3.989-1.885-5.811-1.011l1.73 3.607 1.73 3.606a2.943 2.943 0 0 1-3.378-.618l2.864-2.792Zm-1.217-.196-1.73-3.607c-1.04.5-2.197.777-3.423.777v8c2.456 0 4.792-.56 6.884-1.564l-1.73-3.606Zm-5.153 1.17v-4a7.88 7.88 0 0 1-3.493-.81l-1.765 3.59-1.765 3.59a15.88 15.88 0 0 0 7.023 1.63v-4Zm-5.258-1.22 1.765-3.59c-1.826-.898-4.227-.683-5.857.99L9.284 29.2l2.865 2.79a2.943 2.943 0 0 1-3.404.608l1.765-3.59Zm-1.226.191-2.865-2.791-1.88 1.93 2.865 2.79 2.865 2.792 1.88-1.93-2.865-2.79Zm-1.88 1.93-2.865-2.791a3.318 3.318 0 0 1 4.754 0l-2.866 2.79-2.865 2.792a4.682 4.682 0 0 0 6.707 0l-2.865-2.791Zm-.977 0 2.868-2.79a3.318 3.318 0 0 1-.002 4.63l-2.866-2.791-2.865-2.79a4.682 4.682 0 0 0-.002 6.53l2.867-2.79Zm0-.951 2.865 2.79 1.435-1.472-2.865-2.79-2.865-2.792-1.435 1.473 2.865 2.79Zm1.435-1.473 2.866 2.79c2.178-2.238 1.675-5.563-.293-7.319l-2.663 2.985-2.663 2.985c-1.063-.949-1.446-2.862-.114-4.23l2.867 2.79Zm-.09-1.544 2.662-2.986c-1.762-1.57-2.898-3.912-2.898-6.56h-8c0 4.98 2.147 9.477 5.574 12.532l2.662-2.986Zm-4.236-9.547h4c0-4.874 3.8-8.614 8.232-8.614V1C6.688 1-.464 8.555-.464 17.614h4ZM15.768 6.401v-4C7.438 2.401.895 9.33.895 17.614h8c0-4.1 3.193-7.213 6.873-7.213v-4ZM4.895 17.614h-4c0 8.285 6.544 15.213 14.873 15.213v-8c-3.68 0-6.873-3.112-6.873-7.213h-4Zm10.873 11.213v4c8.33 0 14.873-6.928 14.873-15.213h-8c0 4.1-3.192 7.213-6.873 7.213v4Zm10.873-11.213h4c0-8.284-6.544-15.212-14.873-15.213v8c3.68 0 6.873 3.113 6.873 7.213h4ZM15.79 9.16v4a3.218 3.218 0 0 1-3.22-3.216l4-.003 4-.002a4.782 4.782 0 0 0-4.78-4.779v4Zm.78.781h-4v8.183h8V9.94h-4Zm0 8.183-4-.002a3.197 3.197 0 0 1 3.196-3.195l.002 4 .002 4a4.803 4.803 0 0 0 4.8-4.8l-4-.003Zm-.802.803v-4a3.24 3.24 0 0 1 3.24 3.24h-8a4.76 4.76 0 0 0 4.76 4.76v-4Zm-.76-.76h4V9.94h-8v8.226h4Zm0-8.226 4 .003a3.218 3.218 0 0 1-3.218 3.216v-8a4.782 4.782 0 0 0-4.782 4.779l4 .002Z" mask="url(#ia)"/><path d="M15 6V2h1.5v4z"/><rect x="8" y="2" width="15.5" height="1.5" rx=".75"/></symbol><symbol viewBox="0 0 25 30" id="steps--eat" xmlns="http://www.w3.org/2000/svg"><path fill-rule="evenodd" clip-rule="evenodd" d="M18.617.076a1 1 0 0 1 1.09.217c.909.908 2.097 2.878 3.059 5.918C23.737 9.28 24.5 13.508 24.5 19a1 1 0 0 1-1 1H20v9a1 1 0 1 1-2 0V1a1 1 0 0 1 .617-.924ZM20 18h2.491c-.086-4.816-.786-8.512-1.632-11.186A22.11 22.11 0 0 0 20 4.519V18ZM6 0a1 1 0 0 1 1 1v28a1 1 0 1 1-2 0V1a1 1 0 0 1 1-1Z"/><path fill-rule="evenodd" clip-rule="evenodd" d="M1.5 0a1 1 0 0 1 1 1v5.5c0 .557.192 1.315.7 1.917C3.68 8.983 4.515 9.5 6 9.5a1 1 0 1 1 0 2c-2.015 0-3.43-.733-4.326-1.792A5.068 5.068 0 0 1 .5 6.5V1a1 1 0 0 1 1-1Z"/><path fill-rule="evenodd" clip-rule="evenodd" d="M10.5 0a1 1 0 0 0-1 1v5.5a3.07 3.07 0 0 1-.7 1.917C8.32 8.983 7.484 9.5 6 9.5a1 1 0 0 0 0 2c2.014 0 3.43-.733 4.326-1.792A5.068 5.068 0 0 0 11.5 6.5V1a1 1 0 0 0-1-1Z"/></symbol><symbol viewBox="0 0 30 32" id="steps--leaf" xmlns="http://www.w3.org/2000/svg"><g clip-path="url(#ka)"><path d="M27.844 2.767c-.1-.45-.48-.767-.912-.767h-.005c-4.938.033-16.945.916-21.793 8.38-2.518 3.878-2.735 8.913-.644 14.965.016.047.048.079.07.122-.747 1.973-1.037 3.286-1.044 3.323-.11.54.214 1.072.72 1.188a.88.88 0 0 0 .197.022c.433 0 .822-.321.916-.79.02-.102 2.409-10.373 10.854-16.378.431-.306.547-.927.26-1.387-.288-.46-.87-.585-1.3-.277-4.79 3.405-7.739 8.008-9.473 11.656-1.242-4.578-.916-8.377.986-11.305 3.743-5.764 12.622-7.154 17.982-7.448C23.505 5.872 22.245 9.174 22.245 15c0 3.12-.83 5.522-2.465 7.14-2.62 2.591-6.88 2.834-9.993 2.584-.518-.045-.967.371-1.006.922-.04.55.347 1.03.863 1.072.623.051 1.29.082 1.981.082 3.17 0 6.87-.663 9.43-3.194 2.034-2.011 3.065-4.906 3.065-8.605 0-9.099 3.216-11.096 3.232-11.105.39-.209.594-.677.492-1.129Z"/></g><defs><clipPath id="ka"><path d="M0 0h30v32H0z"/></clipPath></defs></symbol><symbol viewBox="0 0 29 31" id="steps--tub" xmlns="http://www.w3.org/2000/svg"><g clip-path="url(#la)"><path d="M20.776 18.473c-1.706 0-3.088 1.478-3.088 3.3 0 1.825 1.383 3.303 3.088 3.303 1.706 0 3.088-1.478 3.088-3.302 0-1.823-1.382-3.301-3.088-3.301Zm0 5.013c-.884 0-1.6-.766-1.6-1.711 0-.946.716-1.712 1.6-1.712.884 0 1.602.766 1.602 1.712 0 .945-.718 1.711-1.602 1.711ZM11.607-.01c-1.76 0-3.188 1.525-3.188 3.407 0 1.882 1.427 3.406 3.188 3.406 1.76 0 3.187-1.523 3.187-3.406 0-1.883-1.427-3.407-3.187-3.407Zm0 5.476c-1.07 0-1.936-.927-1.936-2.07 0-1.142.866-2.069 1.935-2.069 1.07 0 1.936.927 1.936 2.07 0 1.142-.866 2.069-1.936 2.069ZM8.227 17.61c-1.294 0-2.341 1.12-2.341 2.503s1.047 2.503 2.341 2.503c1.294 0 2.341-1.12 2.341-2.503 0-1.382-1.047-2.503-2.341-2.503ZM8 19.5c-.459 0 1.158 1.104 1.158.613 0-.49-1.617.387-1.158.387.459 0 1.057-.878 1.057-.388S8.46 19.5 8 19.5Zm10.5-9.738s3.04-.838 6.178 1.494c.907.76 1.765 1.337 1.152 2.123-.343.34-.637.657-1.716-.524-1.053-.76-2.72-1.899-5.614-1.442-1.128.236-1.961.55-3.556 2.15-1.593 1.598-3.972 2.724-6.497 2.489-2.525-.236-3.849-1.258-5.246-2.543-.294-.419-.294-.865-.123-1.127.171-.262.833-.524 1.201-.13.368.392 2.109 1.965 3.825 2.07 1.716.104 3.433.21 5.737-1.966 2.306-2.174 3.458-2.332 4.66-2.594Z"/><mask id="lb"><path d="M28.646 26.815V8.157c0-.578-.374-.65-.524-.655h-.506c-.493 0-.536.557-.538.739V8.3c.002 3.609.01 18.253-.001 18.54a2.68 2.68 0 0 1-.822 1.887c-.808.695-1.617.603-1.617.603s-20.177 0-20.655-.026c-.38-.066-1.042-.21-1.606-1.01-.564-.799-.453-1.847-.453-1.847V8.315c0-.839-.675-.813-.675-.813H.942c-.536 0-.585.588-.588.777v18.537c0 1.337.454 2.398 1.548 3.337 1.094.939 2.375.856 2.375.856s19.723 0 20.582-.002c.858-.003 1.985-.417 2.915-1.556.93-1.138.872-2.636.872-2.636Z"/></mask><path d="M28.646 26.815V8.157c0-.578-.374-.65-.524-.655h-.506c-.493 0-.536.557-.538.739V8.3c.002 3.609.01 18.253-.001 18.54a2.68 2.68 0 0 1-.822 1.887c-.808.695-1.617.603-1.617.603s-20.177 0-20.655-.026c-.38-.066-1.042-.21-1.606-1.01-.564-.799-.453-1.847-.453-1.847V8.315c0-.839-.675-.813-.675-.813H.942c-.536 0-.585.588-.588.777v18.537c0 1.337.454 2.398 1.548 3.337 1.094.939 2.375.856 2.375.856s19.723 0 20.582-.002c.858-.003 1.985-.417 2.915-1.556.93-1.138.872-2.636.872-2.636Z"/><path d="M28.646 26.815h-20v.388l.015.387 19.985-.775Zm-.524-19.313.71-19.987-.355-.013h-.355v20Zm-1.044.739L7.08 8.09v.15h20Zm0 .06h-20v.008l20-.008Zm-.001 18.54L7.09 26.083v.013l19.986.745Zm-.822 1.887 13.04 15.165.431-.37.41-.396-13.88-14.399Zm-1.617.603 2.26-19.872-1.127-.128h-1.133v20Zm-20.655-.026L.588 49.015l1.134.195 1.148.064 1.113-19.97Zm-1.606-1.01-16.344 11.528.004.006 16.34-11.533Zm-.453-1.847 19.89 2.098.11-1.046v-1.052h-20ZM1.249 7.502v20h.388l.388-.015-.776-19.985Zm-.895.777-19.998-.289-.002.145v.144h20Zm1.548 21.874L-11.124 45.33 1.903 30.153Zm2.375.856v-20h-.642l-.641.041 1.283 19.96Zm23.497-1.558 15.49 12.653.005-.007L27.774 29.45Zm.872-2.636h20V8.157h-40v18.658h20Zm0-18.658h20c0-4.97-1.859-11.42-7.618-16.084-4.89-3.96-10.03-4.482-12.196-4.558l-.71 19.987-.71 19.987a19.46 19.46 0 0 1-11.56-4.333C10.317 18.673 8.646 12.55 8.646 8.157h20Zm-.524-.655v-20h-.506v40h.506v-20Zm-.506 0v-20a20.47 20.47 0 0 0-12.283 4.083A20.525 20.525 0 0 0 8.914-.382 21.134 21.134 0 0 0 7.08 8.091l20 .15 19.999.149c-.006.733-.014 3.913-1.667 7.598a19.474 19.474 0 0 1-6.096 7.61 19.53 19.53 0 0 1-11.699 3.904v-20Zm-.538.739h-20v.051h40V8.24h-20Zm0 .05h-20v.011h40v-.011h-20Zm0 .01-20 .008.004 10.511a8289.677 8289.677 0 0 1-.002 7.252c-.002.788-.006.45.011.011l19.986.758 19.985.758c.02-.511.018-1.37.018-1.45l.002-1.808v-5.528c0-4.15-.003-8.719-.004-10.52l-20 .008Zm-.001 18.54L7.09 26.096c.05-1.35.384-7.042 5.285-11.767l13.88 14.4 13.881 14.398c6.396-6.166 6.852-13.536 6.927-15.54l-19.986-.746Zm-.822 1.887L13.217 13.563a17.514 17.514 0 0 1 7.807-3.843 17.962 17.962 0 0 1 4.628-.362 19.138 19.138 0 0 1 1.228.1c.01 0 .019.001-2.241 19.873-2.26 19.872-2.25 19.873-2.241 19.874l.018.002a43.32 43.32 0 0 0 .269.029 20.79 20.79 0 0 0 2.597.092 22.034 22.034 0 0 0 3.983-.467 22.487 22.487 0 0 0 10.031-4.968l-13.04-15.165Zm-1.617.603v-20h-.866a19606.272 19606.272 0 0 1-9.27-.003 6059.356 6059.356 0 0 1-9.41-.014c-1.07-.005-.612-.013.003.022L3.983 29.305 2.87 49.274c.97.054 7.17.051 11.607.054a17667.739 17667.739 0 0 0 9.291.003h.869v-20Zm-20.655-.026 3.394-19.71c.432.074 2.526.427 4.938 1.653a17.617 17.617 0 0 1 6.401 5.514L2.376 28.296l-16.339 11.533c4.995 7.076 11.877 8.725 14.551 9.185l3.395-19.71Zm-1.606-1.01L18.72 16.769c2.348 3.33 2.908 6.51 3.08 7.955a16.551 16.551 0 0 1 .079 3.041 17.714 17.714 0 0 1-.047.591l-.01.096-.005.048-.002.024-.002.011c0 .006 0 .012-19.89-2.086s-19.89-2.092-19.891-2.086l-.002.012-.002.024-.005.05a15.656 15.656 0 0 0-.029.31 21.677 21.677 0 0 0-.078 1.585c-.011.81.016 1.863.16 3.079.257 2.17 1.043 6.271 3.956 10.401L2.377 28.296Zm-.453-1.847h20V8.315h-40v18.133h20Zm0-18.133h20c0-6.89-3.412-14.004-10.265-18a20.69 20.69 0 0 0-11.087-2.8l-.05.002H.499c-.012.001-.024.002.751 19.986.776 19.985.764 19.986.751 19.986l-.024.001a181.48 181.48 0 0 1-.148.005 21.128 21.128 0 0 1-.624.008 19.665 19.665 0 0 1-3.172-.268 19.308 19.308 0 0 1-6.518-2.362 19.386 19.386 0 0 1-7.239-7.433 19.029 19.029 0 0 1-2.351-9.124h20Zm-.675-.813v-20H.942v40h.307v-20Zm-.307 0v-20c-4.037 0-8.32 1.192-12.061 3.906a20.562 20.562 0 0 0-6.553 7.946 21.166 21.166 0 0 0-1.972 8.636l19.998.29 19.998.288c-.011.759-.045 3.997-1.784 7.72a19.437 19.437 0 0 1-6.2 7.5A19.477 19.477 0 0 1 .942 27.501v-20Zm-.588.777h-20v18.537h40V8.279h-20Zm0 18.537h-20c0 7.063 2.92 13.705 8.522 18.514L1.902 30.153l13.026-15.177c1.294 1.111 2.854 2.871 3.993 5.373a15.716 15.716 0 0 1 1.433 6.467h-20Zm1.548 3.337L-11.123 45.33A23.585 23.585 0 0 0-.643 50.5a23.605 23.605 0 0 0 5.088.51 22.143 22.143 0 0 0 .99-.034l.063-.004a3.049 3.049 0 0 0 .046-.003c.008 0 .016-.001-1.267-19.96S3 11.05 3.009 11.05h.015l.03-.002.062-.004a16.316 16.316 0 0 1 .372-.018 18.5 18.5 0 0 1 1.583.008c.737.037 1.607.13 2.571.334 1.88.398 4.642 1.34 7.285 3.608L1.902 30.154Zm2.375.856v20h9.971l10.668-.002-.056-20-.057-20h-.33a3832.028 3832.028 0 0 1-3.195.001h-7.032l-6.873.001H4.277v20Zm20.582-.002.056 20c7.104-.02 13.8-3.336 18.348-8.903L27.774 29.451 12.286 16.8c2.687-3.29 7.129-5.777 12.516-5.792l.057 20Zm2.915-1.556L43.27 42.097c3.246-3.977 4.434-8.096 4.913-10.529a24.744 24.744 0 0 0 .464-4.58 22.34 22.34 0 0 0-.013-.895l-.001-.026v-.013c-.001-.006-.001-.013-19.986.761-19.985.775-19.985.768-19.986.762v-.013l-.001-.025a21.46 21.46 0 0 1-.012-.763 15.247 15.247 0 0 1 .288-2.931c.275-1.4 1.029-4.201 3.345-7.04l15.494 12.646Z" mask="url(#lb)"/></g><defs><clipPath id="la"><path d="M0 0h29v31H0z"/></clipPath></defs></symbol></svg>